<?xml version="1.0" encoding="UTF-8" standalone="no"?>
<!-- Created with Inkscape (http://www.inkscape.org/) -->

<svg
   version="1.1"
   id="svg2"
   xml:space="preserve"
   width="1000"
   height="666.66669"
   viewBox="0 0 1000 666.66669"
   sodipodi:docname="4321461.ai"
   xmlns:inkscape="http://www.inkscape.org/namespaces/inkscape"
   xmlns:sodipodi="http://sodipodi.sourceforge.net/DTD/sodipodi-0.dtd"
   xmlns="http://www.w3.org/2000/svg"
   xmlns:svg="http://www.w3.org/2000/svg"><defs
     id="defs6"><clipPath
       clipPathUnits="userSpaceOnUse"
       id="clipPath18"><path
         d="M 0,500 H 750 V 0 H 0 Z"
         id="path16" /></clipPath><clipPath
       clipPathUnits="userSpaceOnUse"
       id="clipPath34"><path
         d="M 178.933,408.24 H 681.069 V 189.954 H 178.933 Z"
         id="path32" /></clipPath><clipPath
       clipPathUnits="userSpaceOnUse"
       id="clipPath96"><path
         d="m 528.055,364.12 h 52.18 v -20.165 h -52.18 z"
         id="path94" /></clipPath><clipPath
       clipPathUnits="userSpaceOnUse"
       id="clipPath120"><path
         d="M 326.408,255.117 H 574.167 V 94.5742 H 326.408 Z"
         id="path118" /></clipPath><clipPath
       clipPathUnits="userSpaceOnUse"
       id="clipPath164"><path
         d="M 499.962,280.992 H 628.407 V 94.5742 H 499.962 Z"
         id="path162" /></clipPath><clipPath
       clipPathUnits="userSpaceOnUse"
       id="clipPath252"><path
         d="m 350.04,203.855 h 128.479 v -52.94 H 350.04 Z"
         id="path250" /></clipPath><clipPath
       clipPathUnits="userSpaceOnUse"
       id="clipPath304"><path
         d="M 321.575,339.09 H 512.402 V 247.829 H 321.575 Z"
         id="path302" /></clipPath></defs><sodipodi:namedview
     id="namedview4"
     pagecolor="#ffffff"
     bordercolor="#666666"
     borderopacity="1.0"
     inkscape:pageshadow="2"
     inkscape:pageopacity="0.0"
     inkscape:pagecheckerboard="0" /><g
     id="g8"
     inkscape:groupmode="layer"
     inkscape:label="4321461"
     transform="matrix(1.3333333,0,0,-1.3333333,0,666.66667)"><path
       d="M 0,0 H 750 V 500 H 0 Z"
       style="fill:#f4eee1;fill-opacity:1;fill-rule:nonzero;stroke:none"
       id="path10" /><g
       id="g12"><g
         id="g14"
         clip-path="url(#clipPath18)"><g
           id="g20"
           transform="translate(692.6205,55.3375)"><path
             d="m 0,0 h -635.241 c -3.064,0 -5.547,2.484 -5.547,5.547 v 378.231 c 0,3.063 2.483,5.547 5.547,5.547 H 0 c 3.064,0 5.547,-2.484 5.547,-5.547 V 5.547 C 5.547,2.484 3.064,0 0,0"
             style="fill:#ffffff;fill-opacity:1;fill-rule:nonzero;stroke:none"
             id="path22" /></g><g
           id="g24"
           transform="translate(698.1679,60.8849)"><path
             d="m 0,0 v 338.94 c -3.219,0.356 -6.453,0.585 -9.707,0.635 -19.303,0.3 -39.693,-6.185 -51.659,-21.336 -9.48,-12.002 -13.868,-29.193 -27.673,-35.778 -6.655,-3.174 -14.34,-3.17 -21.704,-2.799 -30.83,1.555 -61.759,8.441 -92.301,3.952 -38.399,-5.643 -73.545,-30.241 -91.997,-64.386 -15.206,-28.139 -19.368,-61.528 -36.602,-88.472 -21.264,-33.246 -58.917,-51.628 -94.898,-67.84 -15.898,-7.163 -32.505,-14.725 -43.234,-28.471 -8.72,-11.17 -11.943,-27.767 -6.015,-39.992 H -5.547 C -2.484,-5.547 0,-3.064 0,0"
             style="fill:#dbcdfe;fill-opacity:1;fill-rule:nonzero;stroke:none"
             id="path26" /></g><g
           id="g28"><g
             id="g30" /><g
             id="g70"><g
               clip-path="url(#clipPath34)"
               id="g68"><g
                 transform="translate(461.3247,370.0545)"
                 id="g38"><path
                   d="m 0,0 c -6.834,0 -12.706,-4.206 -15.361,-10.244 -1.122,16.955 -8.455,30.05 -17.341,30.05 -9.663,0 -17.495,-15.479 -17.495,-34.573 0,-0.295 0.01,-0.586 0.014,-0.88 -3.09,2.855 -7.128,4.59 -11.554,4.59 -5.948,0 -11.196,-3.128 -14.382,-7.904 h 26.055 2.709 30.549 1.466 32.146 c 0.042,0.5 0.074,1.002 0.074,1.513 C 16.88,-7.812 9.322,0 0,0"
                   style="fill:#e9e7f2;fill-opacity:1;fill-rule:nonzero;stroke:none"
                   id="path36" /></g><g
                 transform="translate(503.7645,394.2987)"
                 id="g42"><path
                   d="m 0,0 c -3.138,0 -5.835,-1.932 -7.054,-4.704 -0.515,7.786 -3.883,13.799 -7.963,13.799 -4.437,0 -8.034,-7.108 -8.034,-15.876 0,-0.136 0.005,-0.269 0.007,-0.404 -1.419,1.311 -3.273,2.108 -5.306,2.108 -2.731,0 -5.141,-1.437 -6.604,-3.63 h 11.964 1.244 14.029 0.673 14.761 c 0.019,0.229 0.034,0.46 0.034,0.695 C 7.751,-3.587 4.281,0 0,0"
                   style="fill:#e9e7f2;fill-opacity:1;fill-rule:nonzero;stroke:none"
                   id="path40" /></g><g
                 transform="translate(354.4347,380.2092)"
                 id="g46"><path
                   d="m 0,0 c 0.001,0.071 0.008,0.14 0.008,0.212 0,7.754 -4.88,14.04 -10.9,14.04 -2.799,0 -5.343,-1.371 -7.273,-3.605 -1.193,9.923 -6.316,17.384 -12.455,17.384 -7.024,0 -12.718,-9.764 -12.718,-21.81 0,-0.254 0.006,-0.506 0.012,-0.758 -2.029,2.62 -4.985,4.281 -8.286,4.281 -5.236,0 -9.612,-4.16 -10.767,-9.744 z"
                   style="fill:#e9e7f2;fill-opacity:1;fill-rule:nonzero;stroke:none"
                   id="path44" /></g><g
                 transform="translate(352.7599,200.8541)"
                 id="g50"><path
                   d="m 0,0 c 0.001,0.071 0.008,0.14 0.008,0.212 0,7.754 -4.88,14.04 -10.9,14.04 -2.799,0 -5.343,-1.371 -7.273,-3.605 -1.193,9.923 -6.316,17.384 -12.455,17.384 -7.024,0 -12.718,-9.764 -12.718,-21.81 0,-0.254 0.007,-0.506 0.012,-0.758 -2.029,2.62 -4.985,4.281 -8.286,4.281 -5.236,0 -9.612,-4.16 -10.767,-9.744 z"
                   style="fill:#e9e7f2;fill-opacity:1;fill-rule:nonzero;stroke:none"
                   id="path48" /></g><g
                 transform="translate(301.4591,306.4047)"
                 id="g54"><path
                   d="m 0,0 c 0.084,0.914 0.132,1.841 0.132,2.783 0,13.427 -8.799,24.312 -19.652,24.312 -3.463,0 -6.715,-1.112 -9.541,-3.057 -2.094,18.366 -13.403,32.398 -27.045,32.398 -15.13,0 -27.396,-17.26 -27.396,-38.551 0,-0.711 0.016,-1.416 0.043,-2.118 -2.342,2.148 -5.208,3.427 -8.313,3.427 -6.766,0 -12.419,-6.01 -13.884,-14.067 -1.838,1.295 -3.983,2.054 -6.286,2.054 -4.532,0 -8.479,-2.894 -10.584,-7.181 z"
                   style="fill:#e9e7f2;fill-opacity:1;fill-rule:nonzero;stroke:none"
                   id="path52" /></g><g
                 transform="translate(661.251,284.4048)"
                 id="g58"><path
                   d="m 0,0 c -2.135,3.698 -6.168,6.198 -10.802,6.198 -2.474,0 -4.774,-0.72 -6.71,-1.946 -1.424,6.656 -6.196,11.558 -11.881,11.558 -2.323,0 -4.487,-0.832 -6.341,-2.252 -1.806,13.387 -8.42,23.318 -16.306,23.318 -8.853,0 -16.1,-12.512 -16.744,-28.381 -2.088,3.159 -5.303,5.191 -8.916,5.191 -6.283,0 -11.377,-6.124 -11.396,-13.686 z"
                   style="fill:#e9e7f2;fill-opacity:1;fill-rule:nonzero;stroke:none"
                   id="path56" /></g><g
                 transform="translate(634.7368,355.3208)"
                 id="g62"><path
                   d="m 0,0 c -0.847,1.467 -2.447,2.459 -4.286,2.459 -0.981,0 -1.894,-0.285 -2.662,-0.772 -0.565,2.641 -2.459,4.586 -4.714,4.586 -0.922,0 -1.78,-0.33 -2.516,-0.894 -0.716,5.312 -3.34,9.252 -6.469,9.252 -3.513,0 -6.388,-4.964 -6.644,-11.261 -0.828,1.254 -2.104,2.06 -3.538,2.06 C -33.321,5.43 -35.343,3 -35.35,0 Z"
                   style="fill:#e9e7f2;fill-opacity:1;fill-rule:nonzero;stroke:none"
                   id="path60" /></g><g
                 transform="translate(681.035,189.9535)"
                 id="g66"><path
                   d="m 0,0 c 0.016,0.278 0.034,0.555 0.034,0.838 0,6.319 -4.062,11.441 -9.072,11.441 -2.474,0 -4.714,-1.252 -6.351,-3.277 -1.182,7.334 -5.674,12.799 -11.048,12.799 -6.028,0 -10.945,-6.871 -11.326,-15.548 -1.005,1.23 -2.249,1.967 -3.602,1.967 -2.987,0 -5.46,-3.559 -5.932,-8.22 z"
                   style="fill:#e9e7f2;fill-opacity:1;fill-rule:nonzero;stroke:none"
                   id="path64" /></g></g></g></g><g
           id="g72"
           transform="translate(422.6102,255.2856)"><path
             d="m 0,0 c -1.973,1.407 -3.539,3.296 -5.231,5.031 -5.18,5.314 -12.338,9.821 -19.476,11.96 -7.781,2.331 -15.319,1.62 -22.554,6.35 -10.75,7.027 -12.768,17.729 -10.665,29.568 0.49,2.76 1.672,6.182 0.805,8.967 -1.736,5.572 -8.956,7.13 -13.652,9.171 -9.421,4.096 -15.914,15.428 -16.39,25.396 -0.243,5.103 0.589,10.193 1.522,15.216 1.194,6.422 5.766,11.474 6.297,18.121 0.672,8.398 -0.882,15.986 3.427,23.847 4.504,8.214 13.607,12.519 22.81,10.908 2.951,-0.516 7.426,-1.251 9.695,-3.354 3.549,-3.29 4.041,-9.808 6.889,-13.751 5.078,-7.032 14.705,-8.888 21.511,-14.264 9.256,-7.312 4.442,-15.951 2.473,-25.536 -1.66,-8.085 -3.268,-15.616 3.612,-21.339 3.715,-3.089 7.716,-5.894 10.883,-9.543 C 7.532,70.324 11.275,60.48 7.677,52.229 6.187,48.812 3.613,46.331 2.653,42.628 1.621,38.646 2.022,34.559 0.848,30.571 -0.944,24.483 -1.867,17.468 4.956,13.674"
             style="fill:#716ad3;fill-opacity:1;fill-rule:nonzero;stroke:none"
             id="path74" /></g><g
           id="g76"
           transform="translate(426.3435,329.768)"><path
             d="m 0,0 c -4.695,-15.626 -9.969,-31.074 -15.835,-46.305 -6.11,8.242 -11.558,16.93 -16.325,25.971 0.135,0.051 0.252,0.153 0.313,0.323 4.785,13.367 9.571,26.734 14.356,40.101 -0.135,0.834 -0.2,1.685 -0.213,2.552 -5.004,-13.978 -10.008,-27.955 -15.012,-41.933 -5.747,11.054 -10.458,22.632 -14.078,34.58 6.867,16.023 13.216,32.262 19.048,48.688 -0.319,0.16 -0.637,0.32 -0.955,0.48 -5.692,-16.047 -11.878,-31.914 -18.563,-47.575 -2.24,7.617 -4.062,15.37 -5.394,23.238 -0.229,1.351 -2.279,0.776 -2.052,-0.565 1.326,-7.829 3.112,-15.55 5.333,-23.128 -13.457,6.612 -26.799,13.454 -40.047,20.475 -0.069,-0.373 -0.137,-0.746 -0.204,-1.12 13.447,-7.123 27.002,-14.043 40.666,-20.744 3.593,-11.942 8.273,-23.52 13.973,-34.583 -8.649,0.337 -17.285,0.901 -25.901,1.672 -0.067,-0.351 -0.137,-0.698 -0.212,-1.044 8.877,-0.798 17.773,-1.379 26.683,-1.716 4.652,-8.897 9.96,-17.457 15.892,-25.6 -13.42,0.56 -26.821,1.487 -40.187,2.782 0.243,-0.388 0.514,-0.765 0.783,-1.142 13.376,-1.281 26.786,-2.194 40.215,-2.739 3.057,-4.138 6.27,-8.171 9.644,-12.079 0.898,-1.041 2.396,0.471 1.505,1.504 -2.966,3.435 -5.806,6.965 -8.522,10.581 5.873,15.193 11.154,30.605 15.86,46.193 C 0.52,-0.749 0.265,-0.37 0,0"
             style="fill:#8383f2;fill-opacity:1;fill-rule:nonzero;stroke:none"
             id="path78" /></g><g
           id="g80"
           transform="translate(398.8889,252.6053)"><path
             d="m 0,0 c -4.013,0.997 -6.727,4.92 -7.684,8.942 -2.846,11.956 0.381,27.959 -6.326,38.595 -7.704,12.217 -21.228,15.062 -34.252,12.833 -15.465,-2.646 -24.257,8.138 -35.41,16.831 -9.521,7.421 -21.494,12.068 -33.549,11.447 -12.056,-0.62 -24.012,-6.954 -30.076,-17.392 -6.063,-10.438 -5.287,-24.83 2.909,-33.692 5.934,-6.415 14.77,-9.389 23.439,-10.497 8.668,-1.109 17.464,-0.598 26.175,-1.303 8.128,-0.657 14.693,-2.327 17.658,-10.107 4.346,-11.408 12.891,-24.232 25.833,-26.478 7.4,-1.284 14.407,1.79 21.636,2.849 8.309,1.217 17.001,1.15 24.797,-2.327"
             style="fill:#9b87ff;fill-opacity:1;fill-rule:nonzero;stroke:none"
             id="path82" /></g><g
           id="g84"
           transform="translate(387.2272,254.9754)"><path
             d="M 0,0 C 1.038,-0.898 2.214,0.878 1.191,1.764 -3.716,6.008 -8.793,10.025 -14,13.856 c -0.512,14.317 -1.438,28.615 -2.761,42.877 -0.364,0.13 -0.728,0.26 -1.097,0.377 1.318,-14.12 2.246,-28.273 2.767,-42.447 -8.64,6.284 -17.669,12.009 -27.07,17.129 -1.643,8.756 -3.08,17.548 -4.32,26.367 -0.368,0.08 -0.732,0.168 -1.092,0.263 1.216,-8.695 2.606,-17.365 4.214,-25.998 -1.705,0.917 -3.412,1.831 -5.141,2.709 -9.969,5.064 -20.493,9.774 -31.388,12.799 -1.836,11.406 -3.386,22.855 -4.655,34.336 -0.372,0.16 -0.742,0.325 -1.117,0.477 1.265,-11.541 2.812,-23.049 4.649,-34.515 -8.298,2.209 -16.805,3.427 -25.448,3.043 -1.355,-0.06 -1.508,-2.184 -0.138,-2.123 8.556,0.38 16.941,-0.835 25.117,-3.023 -14.582,-5.736 -29.258,-11.23 -44.016,-16.497 0.42,-0.231 0.845,-0.453 1.275,-0.667 14.684,5.25 29.287,10.723 43.797,16.439 0.252,-0.188 0.667,-0.084 0.808,0.219 10.939,-3.136 21.491,-7.967 31.547,-13.075 1.139,-0.579 2.259,-1.193 3.387,-1.791 -8.922,-3.336 -17.806,-6.768 -26.657,-10.287 0.375,-0.219 0.739,-0.453 1.09,-0.706 8.903,3.535 17.839,6.984 26.814,10.333 9.875,-5.314 19.338,-11.37 28.351,-18.041 -13.78,-4.886 -27.561,-9.773 -41.341,-14.66 0.241,-0.29 0.486,-0.577 0.734,-0.86 13.875,4.92 27.749,9.841 41.624,14.761 C -9.25,7.691 -4.548,3.934 0,0"
             style="fill:#bfb7f7;fill-opacity:1;fill-rule:nonzero;stroke:none"
             id="path86" /></g><path
           d="m 580.235,306.222 h -52.181 v 57.898 h 52.181 z"
           style="fill:#9c89ff;fill-opacity:1;fill-rule:nonzero;stroke:none"
           id="path88" /><g
           id="g90"><g
             id="g92" /><g
             id="g104"><g
               clip-path="url(#clipPath96)"
               opacity="0.240005"
               id="g102"><g
                 transform="translate(565.3581,345.741)"
                 id="g100"><path
                   d="M 0,0 C 4.958,-0.607 9.918,-1.192 14.877,-1.786 V 18.379 H -37.304 V 4.513 C -24.969,2.344 -12.27,1.503 0,0"
                   style="fill:#9c89ff;fill-opacity:1;fill-rule:nonzero;stroke:none"
                   id="path98" /></g></g></g></g><g
           id="g106"
           transform="translate(581.3444,355.0748)"><path
             d="m 0,0 h -54.399 c -3.924,0 -7.106,3.182 -7.106,7.106 v 7.109 c 0,3.924 3.182,7.106 7.106,7.106 H 0 c 3.925,0 7.106,-3.182 7.106,-7.106 V 7.106 C 7.106,3.182 3.925,0 0,0"
             style="fill:#dfb352;fill-opacity:1;fill-rule:nonzero;stroke:none"
             id="path108" /></g><g
           id="g110"
           transform="translate(628.4067,267.184)"><path
             d="M 0,0 C -12.161,14.524 -64.158,67.981 -64.158,67.981 L -275.061,-5.418 -301.999,-22.284 V -172.61 H 0 Z"
             style="fill:#f2f0f7;fill-opacity:1;fill-rule:nonzero;stroke:none"
             id="path112" /></g><g
           id="g114"><g
             id="g116" /><g
             id="g128"><g
               clip-path="url(#clipPath120)"
               opacity="0.300003"
               id="g126"><g
                 transform="translate(568.8065,110.3286)"
                 id="g124"><path
                   d="m 0,0 c -5.819,9.623 -15.169,16.668 -25.169,21.812 -27.528,14.159 -59.936,15.051 -90.78,12.436 -17.424,-1.478 -35.731,-3.843 -51.787,3.083 -17.145,7.396 -28.481,24.211 -35.28,41.602 -6.798,17.391 -10.002,35.996 -16.414,53.533 -1.612,4.411 -3.521,8.861 -6.649,12.322 l -16.319,-10.217 V -15.754 H 5.36 C 4.77,-10.223 2.879,-4.76 0,0"
                   style="fill:#f2f0f7;fill-opacity:1;fill-rule:nonzero;stroke:none"
                   id="path122" /></g></g></g></g><g
           id="g130"
           transform="translate(478.4977,145.2022)"><path
             d="m 0,0 h -128.436 c -3.505,0 -6.347,2.842 -6.347,6.347 v 51.672 c 0,3.505 2.842,6.347 6.347,6.347 H 0 c 3.505,0 6.347,-2.842 6.347,-6.347 V 6.347 C 6.347,2.842 3.505,0 0,0"
             style="fill:#615bbc;fill-opacity:1;fill-rule:nonzero;stroke:none"
             id="path132" /></g><g
           id="g134"
           transform="translate(475.3115,150.9148)"><path
             d="m 0,0 h -122.064 c -1.771,0 -3.208,1.436 -3.208,3.208 v 46.525 c 0,1.771 1.437,3.208 3.208,3.208 L 0,52.941 c 1.772,0 3.208,-1.437 3.208,-3.208 V 3.208 C 3.208,1.436 1.772,0 0,0"
             style="fill:#dbcdfe;fill-opacity:1;fill-rule:nonzero;stroke:none"
             id="path136" /></g><g
           id="g138"
           transform="translate(390.5874,150.9148)"><path
             d="M 0,0 H -3.487"
             style="fill:#1c356a;fill-opacity:1;fill-rule:nonzero;stroke:none"
             id="path140" /></g><g
           id="g142"
           transform="translate(441.4587,150.9148)"><path
             d="M 0,0 H -3.487"
             style="fill:#1c356a;fill-opacity:1;fill-rule:nonzero;stroke:none"
             id="path144" /></g><g
           id="g146"
           transform="translate(478.5193,179.1285)"><path
             d="m 0,0 h -37.061 v 24.727 h -3.486 V 0 h -47.385 v 24.727 h -3.487 V 0 h -37.06 v -3.487 h 37.06 v -24.727 h 3.487 v 24.727 h 47.385 v -24.727 h 3.486 v 24.727 l 37.061,0 z"
             style="fill:#615bbc;fill-opacity:1;fill-rule:nonzero;stroke:none"
             id="path148" /></g><g
           id="g150"
           transform="translate(628.4067,267.184)"><path
             d="m 0,0 c -12.161,14.524 -64.158,67.981 -64.158,67.981 l -61.526,-21.413 -2.761,-36.151 V -172.61 l 128.445,0 z"
             style="fill:#e3dfed;fill-opacity:1;fill-rule:nonzero;stroke:none"
             id="path152" /></g><g
           id="g154"
           transform="translate(321.5746,247.829)"><path
             d="M 0,0 V -7.751 H 180.27 L 242.674,80.073 316.67,6.824 h 10.51 L 241.504,91.261 175.285,0 Z"
             style="fill:#615bbc;fill-opacity:1;fill-rule:nonzero;stroke:none"
             id="path156" /></g><g
           id="g158"><g
             id="g160" /><g
             id="g172"><g
               clip-path="url(#clipPath164)"
               id="g170"><g
                 transform="translate(628.4067,155.654)"
                 id="g168"><path
                   d="m 0,0 c -3.056,0.212 -6.12,0.308 -9.184,0.257 -19.428,-0.323 -39.659,-5.724 -57.783,1.282 -17.312,6.692 -28.826,23.604 -34.755,41.193 -5.928,17.589 -7.315,36.33 -10.836,54.554 -1.922,9.949 -4.87,20.417 -12.518,27.064 l -3.11,0.988 -0.259,-3.391 V -61.08 H 0 Z"
                   style="fill:#f2f0f7;fill-opacity:1;fill-rule:nonzero;stroke:none"
                   id="path166" /></g></g></g></g><g
           id="g174"
           transform="translate(545.1063,258.1731)"><path
             d="m 0,0 h -14.182 c -1.495,0 -2.708,1.212 -2.708,2.708 v 1.905 c 0,1.495 1.213,2.707 2.708,2.707 H 0 c 1.495,0 2.708,-1.212 2.708,-2.707 V 2.708 C 2.708,1.212 1.495,0 0,0"
             style="fill:#ffffff;fill-opacity:1;fill-rule:nonzero;stroke:none"
             id="path176" /></g><g
           id="g178"
           transform="translate(575.3493,296.3886)"><path
             d="m 0,0 h -14.182 c -1.495,0 -2.708,1.212 -2.708,2.708 v 1.904 c 0,1.496 1.213,2.708 2.708,2.708 H 0 c 1.495,0 2.708,-1.212 2.708,-2.708 V 2.708 C 2.708,1.212 1.495,0 0,0"
             style="fill:#ffffff;fill-opacity:1;fill-rule:nonzero;stroke:none"
             id="path180" /></g><g
           id="g182"
           transform="translate(616.5981,243.3603)"><path
             d="m 0,0 h -14.182 c -1.495,0 -2.708,1.212 -2.708,2.708 v 1.904 c 0,1.496 1.213,2.708 2.708,2.708 H 0 c 1.495,0 2.708,-1.212 2.708,-2.708 V 2.708 C 2.708,1.212 1.495,0 0,0"
             style="fill:#ffffff;fill-opacity:1;fill-rule:nonzero;stroke:none"
             id="path184" /></g><g
           id="g186"
           transform="translate(616.5981,168.4326)"><path
             d="m 0,0 h -14.182 c -1.495,0 -2.708,1.212 -2.708,2.708 v 1.904 c 0,1.496 1.213,2.708 2.708,2.708 H 0 c 1.495,0 2.708,-1.212 2.708,-2.708 V 2.708 C 2.708,1.212 1.495,0 0,0"
             style="fill:#ffffff;fill-opacity:1;fill-rule:nonzero;stroke:none"
             id="path188" /></g><g
           id="g190"
           transform="translate(535.3076,170.0453)"><path
             d="m 0,0 h -14.182 c -1.495,0 -2.708,1.212 -2.708,2.708 v 1.904 c 0,1.496 1.213,2.708 2.708,2.708 H 0 c 1.496,0 2.708,-1.212 2.708,-2.708 V 2.708 C 2.708,1.212 1.496,0 0,0"
             style="fill:#ffffff;fill-opacity:1;fill-rule:nonzero;stroke:none"
             id="path192" /></g><g
           id="g194"
           transform="translate(528.8155,120.4361)"><path
             d="m 0,0 h -14.182 c -1.495,0 -2.708,1.212 -2.708,2.708 v 1.904 c 0,1.496 1.213,2.708 2.708,2.708 H 0 c 1.495,0 2.708,-1.212 2.708,-2.708 V 2.708 C 2.708,1.212 1.495,0 0,0"
             style="fill:#ffffff;fill-opacity:1;fill-rule:nonzero;stroke:none"
             id="path196" /></g><g
           id="g198"
           transform="translate(628.4067,215.2595)"><path
             d="m 0,0 h -2.735 c -1.496,0 -2.708,-1.212 -2.708,-2.708 v -1.905 c 0,-1.495 1.212,-2.707 2.708,-2.707 H 0 Z"
             style="fill:#ffffff;fill-opacity:1;fill-rule:nonzero;stroke:none"
             id="path200" /></g><g
           id="g202"
           transform="translate(628.4067,119.8922)"><path
             d="m 0,0 h -8.637 c -1.496,0 -2.708,-1.212 -2.708,-2.708 v -1.904 c 0,-1.496 1.212,-2.708 2.708,-2.708 H 0 Z"
             style="fill:#ffffff;fill-opacity:1;fill-rule:nonzero;stroke:none"
             id="path204" /></g><g
           id="g206"
           transform="translate(499.9616,223.3134)"><path
             d="M 0,0 V -7.189 C 0.187,-7.23 0.381,-7.255 0.58,-7.255 h 14.182 c 1.496,0 2.708,1.213 2.708,2.708 v 1.905 c 0,1.495 -1.212,2.708 -2.708,2.708 H 0.58 C 0.381,0.066 0.187,0.041 0,0"
             style="fill:#ffffff;fill-opacity:1;fill-rule:nonzero;stroke:none"
             id="path208" /></g><g
           id="g210"
           transform="translate(354.4919,223.4689)"><path
             d="m 0,0 h -14.182 c -1.495,0 -2.708,1.212 -2.708,2.708 v 1.904 c 0,1.496 1.213,2.708 2.708,2.708 H 0 c 1.496,0 2.708,-1.212 2.708,-2.708 V 2.708 C 2.708,1.212 1.496,0 0,0"
             style="fill:#ffffff;fill-opacity:1;fill-rule:nonzero;stroke:none"
             id="path212" /></g><g
           id="g214"
           transform="translate(411.3213,216.2056)"><path
             d="m 0,0 h -14.182 c -1.495,0 -2.708,1.212 -2.708,2.708 v 1.905 c 0,1.495 1.213,2.707 2.708,2.707 H 0 c 1.496,0 2.708,-1.212 2.708,-2.707 V 2.708 C 2.708,1.212 1.496,0 0,0"
             style="fill:#ffffff;fill-opacity:1;fill-rule:nonzero;stroke:none"
             id="path216" /></g><g
           id="g218"
           transform="translate(479.519,226.0835)"><path
             d="m 0,0 h -14.182 c -1.495,0 -2.708,1.212 -2.708,2.708 v 1.904 c 0,1.496 1.213,2.708 2.708,2.708 H 0 c 1.496,0 2.708,-1.212 2.708,-2.708 V 2.708 C 2.708,1.212 1.496,0 0,0"
             style="fill:#ffffff;fill-opacity:1;fill-rule:nonzero;stroke:none"
             id="path220" /></g><g
           id="g222"
           transform="translate(499.9616,190.5946)"><path
             d="m 0,0 h -7.091 c -1.495,0 -2.708,-1.212 -2.708,-2.708 v -1.905 c 0,-1.495 1.213,-2.707 2.708,-2.707 H 0 Z"
             style="fill:#ffffff;fill-opacity:1;fill-rule:nonzero;stroke:none"
             id="path224" /></g><g
           id="g226"
           transform="translate(443.9866,127.1681)"><path
             d="m 0,0 h -14.182 c -1.495,0 -2.708,1.212 -2.708,2.708 v 1.904 c 0,1.496 1.213,2.708 2.708,2.708 H 0 c 1.495,0 2.708,-1.212 2.708,-2.708 V 2.708 C 2.708,1.212 1.495,0 0,0"
             style="fill:#ffffff;fill-opacity:1;fill-rule:nonzero;stroke:none"
             id="path228" /></g><g
           id="g230"
           transform="translate(387.5306,107.6584)"><path
             d="m 0,0 h -14.182 c -1.495,0 -2.708,1.212 -2.708,2.708 v 1.904 c 0,1.496 1.213,2.708 2.708,2.708 H 0 c 1.496,0 2.708,-1.212 2.708,-2.708 V 2.708 C 2.708,1.212 1.496,0 0,0"
             style="fill:#ffffff;fill-opacity:1;fill-rule:nonzero;stroke:none"
             id="path232" /></g><g
           id="g234"
           transform="translate(482.6154,108.0383)"><path
             d="m 0,0 h -14.182 c -1.495,0 -2.708,1.212 -2.708,2.708 v 1.904 c 0,1.496 1.213,2.708 2.708,2.708 H 0 c 1.496,0 2.708,-1.212 2.708,-2.708 V 2.708 C 2.708,1.212 1.496,0 0,0"
             style="fill:#ffffff;fill-opacity:1;fill-rule:nonzero;stroke:none"
             id="path236" /></g><g
           id="g238"
           transform="translate(326.4081,183.357)"><path
             d="M 0,0 H 5.135 C 6.631,0 7.843,1.212 7.843,2.708 V 4.613 C 7.843,6.108 6.631,7.32 5.135,7.32 H 0 Z"
             style="fill:#ffffff;fill-opacity:1;fill-rule:nonzero;stroke:none"
             id="path240" /></g><g
           id="g242"
           transform="translate(326.4081,125.327)"><path
             d="m 0,0 h 12.728 c 1.496,0 2.708,1.212 2.708,2.708 v 1.904 c 0,1.496 -1.212,2.708 -2.708,2.708 H 0 Z"
             style="fill:#ffffff;fill-opacity:1;fill-rule:nonzero;stroke:none"
             id="path244" /></g><g
           id="g246"><g
             id="g248" /><g
             id="g260"><g
               clip-path="url(#clipPath252)"
               id="g258"><g
                 transform="translate(455.7632,169.7266)"
                 id="g256"><path
                   d="m 0,0 c -21.335,-0.361 -42.414,-13.217 -62.965,-7.477 -10.493,2.93 -19.319,10.623 -24.777,20.052 -3.819,6.596 -6.076,13.982 -7.102,21.554 h -7.671 c -1.772,0 -3.208,-1.436 -3.208,-3.208 v -46.525 c 0,-1.772 1.436,-3.208 3.208,-3.208 H 19.548 c 1.772,0 3.208,1.436 3.208,3.208 V -4.612 C 15.618,-1.469 7.8,0.132 0,0"
                   style="fill:#f2f0f7;fill-opacity:1;fill-rule:nonzero;stroke:none"
                   id="path254" /></g></g></g></g><g
           id="g262"
           transform="translate(608.0586,94.5473)"><path
             d="m 0,0 h -63.951 v 107.122 c 0,8.346 6.766,15.112 15.112,15.112 h 33.727 C -6.766,122.234 0,115.468 0,107.122 Z"
             style="fill:#615bbc;fill-opacity:1;fill-rule:nonzero;stroke:none"
             id="path264" /></g><g
           id="g266"
           transform="translate(557.8655,216.7127)"><path
             d="m 0,0 c -0.358,-0.032 -0.709,-0.086 -1.06,-0.142 -0.218,-14.235 -0.359,-37.007 -0.359,-62.674 0,-23.76 0.121,-45.026 0.312,-59.349 h 1.156 c 0.191,14.323 0.312,35.589 0.312,59.349 C 0.361,-37.061 0.219,-14.225 0,0"
             style="fill:#4b4ba0;fill-opacity:1;fill-rule:nonzero;stroke:none"
             id="path268" /></g><g
           id="g270"
           transform="translate(570.3621,216.7811)"><path
             d="m 0,0 h -1.055 c -0.22,-14.22 -0.363,-37.087 -0.363,-62.885 0,-23.759 0.121,-45.025 0.312,-59.349 h 1.157 c 0.19,14.324 0.312,35.59 0.312,59.349 C 0.363,-37.087 0.22,-14.22 0,0"
             style="fill:#4b4ba0;fill-opacity:1;fill-rule:nonzero;stroke:none"
             id="path272" /></g><g
           id="g274"
           transform="translate(582.8599,216.7811)"><path
             d="m 0,0 h -1.055 c -0.22,-14.22 -0.363,-37.087 -0.363,-62.885 0,-23.759 0.121,-45.025 0.312,-59.349 h 1.157 c 0.19,14.324 0.312,35.59 0.312,59.349 C 0.363,-37.087 0.22,-14.22 0,0"
             style="fill:#4b4ba0;fill-opacity:1;fill-rule:nonzero;stroke:none"
             id="path276" /></g><g
           id="g278"
           transform="translate(595.3611,216.5705)"><path
             d="m 0,0 c -0.351,0.056 -0.702,0.11 -1.06,0.142 -0.219,-14.225 -0.361,-37.061 -0.361,-62.816 0,-23.76 0.121,-45.026 0.312,-59.349 H 0.047 C 0.238,-107.7 0.359,-86.434 0.359,-62.674 0.359,-37.007 0.218,-14.235 0,0"
             style="fill:#4b4ba0;fill-opacity:1;fill-rule:nonzero;stroke:none"
             id="path280" /></g><g
           id="g282"
           transform="translate(602.0056,160.867)"><path
             d="m 0,0 c 0,-3.114 -2.524,-5.638 -5.637,-5.638 -3.114,0 -5.638,2.524 -5.638,5.638 0,3.113 2.524,5.637 5.638,5.637 C -2.524,5.637 0,3.113 0,0"
             style="fill:#fbc33b;fill-opacity:1;fill-rule:nonzero;stroke:none"
             id="path284" /></g><g
           id="g286"
           transform="translate(640.5904,89.8463)"><path
             d="m 0,0 h -336.7 c -4.045,0 -7.324,3.279 -7.324,7.324 v 0.178 c 0,4.045 3.279,7.325 7.324,7.325 H 0 c 4.045,0 7.324,-3.28 7.324,-7.325 V 7.324 C 7.324,3.279 4.045,0 0,0"
             style="fill:#fbc33b;fill-opacity:1;fill-rule:nonzero;stroke:none"
             id="path288" /></g><g
           id="g290"
           transform="translate(496.8595,247.829)"><path
             d="M 0,0 66.219,91.261 H -88.9 L -175.285,0 Z"
             style="fill:#fbc33b;fill-opacity:1;fill-rule:nonzero;stroke:none"
             id="path292" /></g><g
           id="g294"
           transform="translate(422.0203,91.3411)"><path
             d="m 0,0 c -1.101,0 -2.15,-0.244 -3.118,-0.678 -1.034,6.045 -6.117,10.639 -12.246,10.639 -2.113,0 -4.1,-0.549 -5.843,-1.511 -0.618,10.937 -6.47,19.514 -13.601,19.514 -7.544,0 -13.659,-9.595 -13.659,-21.431 0,-0.481 0.011,-0.959 0.031,-1.432 -1.409,0.908 -3.031,1.432 -4.764,1.432 -5.35,0 -9.689,-4.941 -9.75,-11.061 h 16.441 3.06 15.738 4.603 15.876 4.214 10.25 C 5.691,-1.804 3.03,0 0,0"
             style="fill:#7e70e8;fill-opacity:1;fill-rule:nonzero;stroke:none"
             id="path296" /></g><g
           id="g298"><g
             id="g300" /><g
             id="g312"><g
               clip-path="url(#clipPath304)"
               opacity="0.309998"
               id="g310"><g
                 transform="translate(512.4022,269.2496)"
                 id="g308"><path
                   d="m 0,0 c -18.515,-0.492 -37.068,-2.406 -55.574,-3.583 -11.485,-0.73 -23.953,-0.908 -33.324,5.773 -12.257,8.739 -14.713,25.997 -13.242,40.979 0.872,8.878 2.723,17.802 3.477,26.672 h -5.779 l -86.386,-91.262 h 175.285 z"
                   style="fill:#fbc33b;fill-opacity:1;fill-rule:nonzero;stroke:none"
                   id="path306" /></g></g></g></g><g
           id="g314"
           transform="translate(406.4953,85.2936)"><path
             d="m 0,0 c -0.069,8.298 -4.765,14.995 -10.553,14.995 -4.291,0 -7.976,-3.684 -9.628,-8.967 -1.567,9.461 -8.972,16.631 -17.887,16.631 -5.076,0 -9.663,-2.328 -12.965,-6.075 0.066,1.189 0.105,2.39 0.105,3.607 0,22.058 -10.951,39.939 -24.46,39.939 -13.508,0 -24.459,-17.881 -24.459,-39.939 0,-1.943 0.09,-3.851 0.254,-5.72 -2.757,3.045 -6.369,4.908 -10.336,4.908 -8.588,0 -15.552,-8.66 -15.632,-19.379 z"
             style="fill:#9b87ff;fill-opacity:1;fill-rule:nonzero;stroke:none"
             id="path316" /></g><g
           id="g318"
           transform="translate(464.4264,85.2936)"><path
             d="m 0,0 c 0.044,5.31 3.049,9.596 6.753,9.596 2.746,0 5.104,-2.358 6.161,-5.739 1.003,6.055 5.741,10.643 11.446,10.643 3.249,0 6.184,-1.49 8.296,-3.888 -0.041,0.761 -0.066,1.53 -0.066,2.309 0,14.115 7.008,25.557 15.652,25.557 8.644,0 15.652,-11.442 15.652,-25.557 0,-1.244 -0.058,-2.465 -0.163,-3.661 1.765,1.949 4.076,3.141 6.614,3.141 5.496,0 9.952,-5.542 10.004,-12.401 z"
             style="fill:#4b4ba0;fill-opacity:1;fill-rule:nonzero;stroke:none"
             id="path320" /></g><g
           id="g322"
           transform="translate(644.7624,85.2936)"><path
             d="m 0,0 c -0.444,5.848 -4.388,10.423 -9.191,10.423 -1.509,0 -2.928,-0.46 -4.186,-1.26 -0.63,9.7 -6.165,17.286 -12.904,17.286 -6.78,0 -12.336,-7.679 -12.91,-17.463 -0.925,0.401 -1.917,0.63 -2.955,0.63 -4.562,0 -8.314,-4.214 -8.767,-9.616 z"
             style="fill:#7e70e8;fill-opacity:1;fill-rule:nonzero;stroke:none"
             id="path324" /></g><g
           id="g326"
           transform="translate(391.7993,276.3512)"><path
             d="m 0,0 c 0,3.63 2.953,6.583 6.582,6.583 3.63,0 6.583,-2.953 6.583,-6.583 0,-3.629 -2.953,-6.582 -6.583,-6.582 C 2.953,-6.582 0,-3.629 0,0 m 15.165,0 c 0,4.733 -3.85,8.583 -8.583,8.583 C 1.85,8.583 -2,4.733 -2,0 -2,-4.337 1.237,-7.923 5.419,-8.494 V -32.33 c 0,-0.643 0.521,-1.163 1.163,-1.163 0.643,0 1.163,0.52 1.163,1.163 v 0.236 h 1.909 c 0.44,0 0.798,0.358 0.798,0.798 v 1.638 c 0,0.441 -0.358,0.798 -0.798,0.798 H 7.745 v 3.353 h 2.024 c 0.377,0 0.683,0.305 0.683,0.682 v 1.001 c 0,0.377 -0.306,0.682 -0.683,0.682 H 7.745 v 1.006 h 1.74 c 0.534,0 0.967,0.432 0.967,0.966 v 2.809 c 0,0.533 -0.433,0.966 -0.967,0.966 h -1.74 v 1.668 h 2.024 c 0.377,0 0.683,0.306 0.683,0.683 v 1.001 c 0,0.376 -0.306,0.682 -0.683,0.682 H 7.745 v 4.867 c 4.183,0.571 7.42,4.157 7.42,8.494"
             style="fill:#ffffff;fill-opacity:1;fill-rule:nonzero;stroke:none"
             id="path328" /></g><g
           id="g330"
           transform="translate(457.3218,269.42)"><path
             d="m 0,0 c -6.161,9.441 -12.704,19.684 -21.822,26.502 -1.399,1.045 -2.89,2.024 -4.57,2.5 -1.521,0.432 -3.126,0.432 -4.706,0.43 -6.455,-0.01 -12.769,-0.838 -19.229,-0.563 -2.039,0.087 -8.038,1.787 -9.698,0.826 -1.71,-0.989 -0.275,-3.204 0.867,-4.088 2.068,-1.599 5.659,-1.927 8.158,-2.224 6.427,-0.766 12.905,-1.095 19.376,-0.987 -2.307,-4.843 -13.222,-3.652 -17.663,-3.721 -6.434,-0.099 -13.24,0.265 -19.224,2.856 -1.546,0.67 -9.063,1.555 -6.581,-1.932 1.2,-1.685 3.655,-2.284 5.466,-3.04 1.459,-0.61 3.02,-0.927 4.569,-1.241 4.245,-0.861 8.223,-1.914 12.52,-1.649 5.058,0.312 10.145,0.291 15.211,0.621 -4.97,-2.124 -10.358,-2.919 -15.723,-3.18 -5.333,-0.26 -11.986,-1.155 -16.994,1.158 -1.773,0.819 -3.489,1.672 -5.519,1.41 -1.227,-0.159 -3.183,-0.88 -1.949,-2.365 8.157,-9.814 26.084,-6.923 37.116,-6 -1.23,-1.476 -3.079,-2.279 -4.905,-2.878 -3.058,-1.004 -6.257,-1.581 -9.474,-1.709 -5.765,-0.23 -12.124,0.823 -16.827,-2.519 -0.416,-0.295 -0.853,-0.735 -0.742,-1.232 0.126,-0.569 0.844,-0.737 1.426,-0.784 3.806,-0.307 7.553,-0.981 11.359,-0.682 8.084,0.637 16.757,3.848 22.965,-2.89 2.37,-2.572 4.092,-5.661 5.791,-8.719"
             style="fill:#ed7abf;fill-opacity:1;fill-rule:nonzero;stroke:none"
             id="path332" /></g><g
           id="g334"
           transform="translate(603.2488,156.7323)"><path
             d="m 0,0 c 1.941,-1.77 2.004,-4.75 1.925,-7.376 -0.072,-2.402 -0.144,-4.805 -0.217,-7.207 12.275,-2.11 24.243,-5.776 36.56,-7.745 1.77,3.124 1.265,7.982 2.403,11.765 0.995,-4.107 1.796,-8.259 2.435,-12.435 2.252,-0.267 4.516,-0.474 6.802,-0.581 8.584,-0.401 17.217,-0.179 25.698,0.952 0.929,2.171 1.829,4.346 2.136,6.673 0.798,6.04 -2.486,11.754 -4.402,17.537 -4.99,15.065 2.435,28.851 1.3,43.916 -0.434,5.769 -2.572,11.642 -6.966,15.406 -2.445,2.095 -5.466,3.446 -7.857,5.604 -6.024,5.435 -4.578,11.364 -3.264,18.131 1.227,6.319 -0.989,14.167 -5.542,18.92 -3.505,3.66 -8.532,5.723 -11.587,9.767 -3.534,4.679 -3.722,11.047 -3.159,16.884 2.138,22.139 22.418,56.508 4.329,76.621 -8.391,9.33 -21.068,14.56 -31.879,20.431 -11.811,6.413 -28.71,7.495 -41.784,5.046 -14.191,-2.658 -25.19,-12.897 -31.41,-25.634 -6.06,-12.41 -7.267,-28.148 -9.013,-41.688 -1.949,-15.119 -1.589,-31.576 -5.99,-46.181 -1.07,-3.55 -3.187,-6.933 -6.421,-8.745 -11.12,-6.23 -18.033,-6.258 -19.956,-20.722 -2.1,-15.797 1.198,-36.905 -10.434,-49.652 -3.867,-4.238 -9.125,-7.085 -12.696,-11.576 -5.477,-6.884 -5.18,-19.187 -5.887,-27.635 6.487,-1.677 13.174,-2.578 19.873,-2.681 0.589,-0.009 1.209,-0.004 1.722,0.285 0.652,0.367 0.985,1.105 1.277,1.795 2.086,4.936 4.173,9.873 6.259,14.81 0.675,-5.578 1.35,-11.155 2.024,-16.733 0.093,-0.765 0.244,-1.629 0.889,-2.051 0.443,-0.29 1.01,-0.29 1.54,-0.279 7.259,0.143 18.142,2.596 24.377,-1.755 6.554,-4.574 10.116,-8.235 18.957,-8.209 16.757,0.051 32.656,6.928 47.899,13.89 C -6.814,1.031 -2.637,2.404 0,0"
             style="fill:#353566;fill-opacity:1;fill-rule:nonzero;stroke:none"
             id="path336" /></g><g
           id="g338"
           transform="translate(478.1944,176.1418)"><path
             d="m 0,0 c 0,0 11.462,-8.004 40.127,19.627 0,0 1.656,-8.663 7.997,-16.203 0,0 -33.481,-16.982 -33.281,-65.208 0.144,-34.574 -0.264,-51.951 -0.507,-59.02 h 142.142 c 1.802,24.873 5.373,105.381 -22.614,118.107 L 141.132,21.345 178.173,49 c 0,0 -21.167,48.716 -68.271,35.133 C 85.581,73.247 86.11,83.274 86.11,83.274 c 0,0 -23.744,14.825 -40.65,1.932 C 28.555,72.314 9.306,54.004 9.306,54.004 l -31.795,53.082 -41.046,-23.445 c 0,0 24.46,-77.562 63.535,-83.641"
             style="fill:#6ec6cc;fill-opacity:1;fill-rule:nonzero;stroke:none"
             id="path340" /></g><g
           id="g342"
           transform="translate(461.7526,273.1313)"><path
             d="M 0,0 -1.06,1.77 C -2.064,1.325 -3.082,0.869 -4.124,0.395 c -5.297,-2.438 -11.061,-5.254 -17.007,-8.41 -5.937,-3.173 -11.49,-6.383 -16.47,-9.418 -2.329,-1.435 -4.529,-2.825 -6.587,-4.16 0.219,-0.584 0.453,-1.199 0.697,-1.833 2.181,1.321 4.517,2.715 6.984,4.167 5.011,2.917 10.561,6.052 16.462,9.205 5.91,3.136 11.608,5.992 16.826,8.523 C -2.122,-1.006 -1.052,-0.497 0,0"
             style="fill:#f4eee1;fill-opacity:1;fill-rule:nonzero;stroke:none"
             id="path344" /></g><g
           id="g346"
           transform="translate(601.7477,158.2145)"><path
             d="m 0,0 c -6.659,-4.794 -15.008,-6.397 -22.977,-8.348 -7.969,-1.951 -16.27,-4.645 -21.645,-10.844 -0.739,-0.853 -2.162,-3.349 -1.823,-4.505 0.373,-1.274 1.497,-0.151 2.288,0.288 1.635,0.908 3.276,1.805 4.941,2.658 6.458,3.308 13.468,6.089 20.841,5.966 -4.122,-2.454 -8.145,-5.075 -12.056,-7.854 -4.788,-3.401 -9.587,-7.262 -11.963,-12.634 -0.64,-1.447 -0.753,-3.667 0.771,-4.093 7.36,7.945 15.432,16.307 26.039,18.492 -7.291,-5.479 -14.84,-11.261 -18.874,-19.441 -0.584,-1.183 -1.171,-2.467 -1.25,-3.799 -0.035,-0.605 0.051,-1.881 0.733,-2.164 0.843,-0.35 1.797,1.128 2.315,1.621 2.159,2.057 3.932,4.473 5.943,6.667 4.204,4.589 9.473,8.197 15.272,10.459 -4.214,-3.66 -8.134,-7.659 -11.709,-11.946 -2.198,-2.635 -4.362,-5.642 -4.41,-9.074 -0.019,-1.356 0.87,-2.472 2.052,-1.462 1.349,1.154 2.523,2.808 3.811,4.078 3.731,3.679 7.626,7.337 12.309,9.731 5.28,2.7 11.597,1.557 17.516,1.911 10.5,0.628 20.556,6.507 26.254,15.349"
             style="fill:#ed7abf;fill-opacity:1;fill-rule:nonzero;stroke:none"
             id="path348" /></g><g
           id="g350"
           transform="translate(608.6996,221.6307)"><path
             d="M 0,0 20.072,-38.844 -20.603,-61.63 6.384,-106.17 c 0,0 80.702,37.624 66.974,64.136 C 59.63,-15.521 42.36,15.12 38.007,19.431 33.654,23.743 0,0 0,0"
             style="fill:#6ec6cc;fill-opacity:1;fill-rule:nonzero;stroke:none"
             id="path352" /></g><g
           id="g354"
           transform="translate(612.432,174.6795)"><path
             d="m 0,0 0.203,0.672 c -10.007,-2.365 -22.361,-4.179 -35.763,-3.88 -17.517,0.376 -33.103,4.276 -43.974,8.098 -3.453,1.201 -6.456,2.355 -8.968,3.348 0.692,-1.136 1.475,-2.266 2.388,-3.352 0,0 -0.454,-0.233 -1.228,-0.698 1.865,-0.996 3.96,-2.038 6.303,-3.094 5.43,-2.457 12.149,-4.878 19.842,-6.742 7.687,-1.871 16.359,-3.107 25.511,-3.334 7.953,-0.151 15.577,0.478 22.531,1.651 C -8.877,-4.692 -4.467,-2.295 0,0"
             style="fill:#f4eee1;fill-opacity:1;fill-rule:nonzero;stroke:none"
             id="path356" /></g><g
           id="g358"
           transform="translate(568.2566,255.1205)"><path
             d="m 0,0 c 0.409,-3.422 2.044,-6.702 4.558,-9.075 3.207,-3.025 7.722,-4.563 12.122,-4.296 2.775,0.169 5.569,1.064 7.659,2.896 2.528,2.216 3.792,5.575 4.269,8.903 0.408,2.841 0.293,5.752 -0.305,8.56 C 25.581,6.598 22.76,5.997 19.84,5.155 10.904,2.578 4.507,0.95 0,0"
             style="fill:#ffffff;fill-opacity:1;fill-rule:nonzero;stroke:none"
             id="path360" /></g><g
           id="g362"
           transform="translate(555.0607,242.9157)"><path
             d="m 0,0 c 2.155,-0.22 4.313,0.195 6.274,1.114 5.176,2.425 8.252,7.08 10.789,11.963 -3.867,-0.872 -7.819,3.424 -7.819,3.424 0,0 -5.908,3.686 -13.926,5.784 C -6.212,20.221 -7.527,18.029 -8.348,15.6 -10.483,9.275 -8.453,0.862 0,0"
             style="fill:#ffffff;fill-opacity:1;fill-rule:nonzero;stroke:none"
             id="path364" /></g><g
           id="g366"
           transform="translate(404.9644,276.3512)"><path
             d="m 0,0 c 0,-2.012 -0.91,-3.814 -2.338,-5.022 0.812,-0.015 1.591,-0.192 2.264,-0.554 C 1.216,-4.077 2,-2.13 2,0 2,2.816 0.631,5.311 -1.47,6.877 -2.448,6.644 -3.426,6.415 -4.406,6.206 -1.845,5.304 0,2.866 0,0"
             style="fill:#ffffff;fill-opacity:1;fill-rule:nonzero;stroke:none"
             id="path368" /></g><g
           id="g370"
           transform="translate(397.2188,262.1073)"><path
             d="m 0,0 v -18.087 c 0,-0.642 0.521,-1.162 1.163,-1.162 0.642,0 1.163,0.52 1.163,1.162 v 0.237 h 1.908 c 0.441,0 0.798,0.358 0.798,0.798 v 1.638 c 0,0.441 -0.357,0.798 -0.798,0.798 H 2.326 v 3.352 H 4.35 c 0.377,0 0.682,0.306 0.682,0.683 v 1.001 c 0,0.377 -0.305,0.682 -0.682,0.682 H 2.326 v 1.005 h 1.74 c 0.534,0 0.966,0.433 0.966,0.967 v 2.809 c 0,0.533 -0.432,0.966 -0.966,0.966 h -1.74 v 1.668 H 4.35 c 0.377,0 0.682,0.306 0.682,0.683 v 1 c 0,0.108 -0.03,0.206 -0.074,0.297 C 3.289,0.25 1.649,0.061 0,0"
             style="fill:#ffffff;fill-opacity:1;fill-rule:nonzero;stroke:none"
             id="path372" /></g><g
           id="g374"
           transform="translate(576.3595,249.4177)"><path
             d="m 0,0 v 0 c -9.099,-0.534 -16.909,6.409 -17.444,15.508 l -1.901,32.367 32.952,1.936 1.901,-32.367 C 16.043,8.344 9.099,0.535 0,0"
             style="fill:#d667af;fill-opacity:1;fill-rule:nonzero;stroke:none"
             id="path376" /></g><g
           id="g378"
           transform="translate(608.9923,140.133)"><path
             d="m 0,0 c 4.484,-8.005 8.715,-15.419 12.315,-21.605 0.543,0.276 1.123,0.574 1.723,0.884 -3.4,6.314 -7.524,13.818 -12.022,21.85 -5.058,9.029 -9.796,17.31 -13.666,23.918 l -1.606,-0.9 C -9.643,17.395 -5.057,9.029 0,0"
             style="fill:#f4eee1;fill-opacity:1;fill-rule:nonzero;stroke:none"
             id="path380" /></g><g
           id="g382"
           transform="translate(649.9927,191.6917)"><path
             d="m 0,0 c -0.026,0.075 -0.901,-0.163 -2.462,-0.658 -1.565,-0.487 -3.798,-1.281 -6.532,-2.332 -5.469,-2.097 -12.888,-5.366 -20.805,-9.52 -7.912,-4.161 -14.834,-8.36 -19.75,-11.533 -2.459,-1.587 -4.425,-2.907 -5.76,-3.854 -1.337,-0.945 -2.055,-1.498 -2.012,-1.565 0.044,-0.067 0.845,0.359 2.255,1.187 1.929,1.147 3.895,2.317 5.947,3.537 5.016,2.99 11.978,7.062 19.857,11.205 7.883,4.136 15.206,7.504 20.576,9.786 2.683,1.144 4.865,2.052 6.379,2.667 C -0.797,-0.456 0.026,-0.075 0,0"
             style="fill:#51999b;fill-opacity:1;fill-rule:nonzero;stroke:none"
             id="path384" /></g><g
           id="g386"
           transform="translate(641.6451,195.3817)"><path
             d="m 0,0 c -0.127,0.272 -4.265,-1.644 -8.34,-5.439 -2.025,-1.9 -3.662,-3.776 -4.65,-5.362 -0.995,-1.619 -0.923,-2.892 -0.773,-2.878 0.171,-0.023 0.376,1.062 1.45,2.421 1.071,1.347 2.797,3.136 4.758,4.971 C -3.606,-2.603 0.169,-0.293 0,0"
             style="fill:#51999b;fill-opacity:1;fill-rule:nonzero;stroke:none"
             id="path388" /></g><g
           id="g390"
           transform="translate(524.7806,181.1156)"><path
             d="m 0,0 c 0.272,0.177 -2.347,3.53 -4.429,9.895 -1.039,3.167 -1.913,7.064 -2.284,11.451 -0.166,2.193 -0.241,4.507 -0.084,6.892 0.112,2.386 0.454,4.843 1.017,7.301 1.086,4.925 3.284,9.305 5.433,13.171 2.169,3.869 4.348,7.271 6.089,10.164 3.506,5.781 5.575,9.424 5.374,9.554 -0.201,0.131 -2.635,-3.279 -6.41,-8.9 C 2.827,56.709 0.551,53.393 -1.732,49.503 -3.99,45.622 -6.32,41.116 -7.468,35.928 -8.057,33.358 -8.399,30.801 -8.492,28.326 -8.631,25.852 -8.518,23.461 -8.303,21.201 -7.832,16.68 -6.802,12.692 -5.584,9.487 -4.361,6.28 -2.991,3.849 -1.909,2.273 -0.807,0.709 -0.083,-0.063 0,0"
             style="fill:#51999b;fill-opacity:1;fill-rule:nonzero;stroke:none"
             id="path392" /></g><g
           id="g394"
           transform="translate(628.4977,182.4484)"><path
             d="m 0,0 c 0.106,0.055 -0.3,1.132 -1.126,3.031 -0.826,1.899 -2.071,4.62 -3.642,7.964 -1.571,3.345 -3.467,7.313 -5.597,11.707 -1.08,2.239 -2.194,4.547 -3.338,6.919 -1.165,2.387 -2.36,4.85 -3.428,7.422 -2.147,5.132 -3.326,10.325 -3.451,15.115 -0.161,4.773 0.778,9.08 2.455,12.242 1.65,3.192 3.895,5.186 5.567,6.311 0.384,0.25 0.76,0.496 1.133,0.74 0.293,0.163 0.582,0.325 0.87,0.486 0.469,0.272 0.708,0.443 0.686,0.499 -0.022,0.056 -0.304,-0.007 -0.828,-0.18 -0.261,-0.089 -0.587,-0.197 -0.963,-0.347 -0.412,-0.205 -0.828,-0.413 -1.252,-0.625 -0.474,-0.234 -0.945,-0.589 -1.492,-0.934 -0.523,-0.374 -1.065,-0.825 -1.629,-1.327 -1.106,-1.033 -2.209,-2.384 -3.167,-4.036 -1.936,-3.304 -3.057,-7.861 -2.976,-12.861 0.039,-2.5 0.319,-5.113 0.902,-7.768 0.579,-2.654 1.457,-5.332 2.544,-7.976 1.095,-2.64 2.319,-5.13 3.508,-7.513 1.171,-2.349 2.311,-4.635 3.418,-6.853 2.213,-4.366 4.228,-8.286 5.941,-11.567 1.714,-3.28 3.127,-5.92 4.138,-7.726 C -0.715,0.917 -0.106,-0.055 0,0"
             style="fill:#51999b;fill-opacity:1;fill-rule:nonzero;stroke:none"
             id="path396" /></g><g
           id="g398"
           transform="translate(526.7376,234.3054)"><path
             d="M 0,0 C 0.284,-0.098 1.508,3.048 1.71,7.163 1.935,11.276 1.042,14.532 0.749,14.464 0.417,14.407 0.776,11.179 0.557,7.223 0.365,3.264 -0.325,0.091 0,0"
             style="fill:#51999b;fill-opacity:1;fill-rule:nonzero;stroke:none"
             id="path400" /></g><g
           id="g402"
           transform="translate(662.4106,143.2955)"><path
             d="m 0,0 c -0.101,0.138 -2.679,-1.606 -6.876,-4.367 -4.195,-2.763 -10.038,-6.502 -16.646,-10.376 -6.612,-3.868 -12.732,-7.134 -17.194,-9.442 -4.461,-2.31 -7.243,-3.704 -7.172,-3.86 0.033,-0.073 0.77,0.186 2.076,0.715 1.308,0.526 3.174,1.348 5.457,2.412 4.568,2.127 10.776,5.294 17.416,9.178 6.637,3.891 12.437,7.757 16.526,10.7 2.045,1.47 3.675,2.695 4.773,3.579 C -0.539,-0.581 0.047,-0.064 0,0"
             style="fill:#51999b;fill-opacity:1;fill-rule:nonzero;stroke:none"
             id="path404" /></g><g
           id="g406"
           transform="translate(642.1397,299.0998)"><path
             d="m 0,0 c -1.179,6.554 -7.456,11.106 -14.932,11.443 -1.209,0.054 -2.116,0.941 -2.352,2.024 -10.044,4.514 -17.506,17.075 -17.956,32.081 -0.053,1.76 -0.006,3.492 0.132,5.187 -6.901,-3.493 -15.068,-5.739 -23.905,-6.233 -14.509,-0.809 -27.752,3.27 -36.84,10.34 l 0.029,0.086 -11.392,-32.795 c -5.898,-16.977 3.084,-35.521 20.061,-41.419 l 16.007,-5.56 c 15.317,-5.322 31.724,-0.242 41.542,11.502 3.712,-3.324 9.365,-4.948 15.276,-3.885 C -5.006,-15.552 1.41,-7.839 0,0"
             style="fill:#ed7abf;fill-opacity:1;fill-rule:nonzero;stroke:none"
             id="path408" /></g><g
           id="g410"
           transform="translate(555.4319,311.995)"><path
             d="m 0,0 c -0.063,-6.097 4.204,-11.444 10.227,-12.369 6.022,-0.925 11.698,2.896 13.467,8.73 z"
             style="fill:#ffffff;fill-opacity:1;fill-rule:nonzero;stroke:none"
             id="path412" /></g><g
           id="g414"
           transform="translate(636.0678,302.3942)"><path
             d="m 0,0 c 0.07,0.192 -1.474,1.018 -4.249,1.361 -2.739,0.355 -6.769,0.038 -10.624,-1.94 -3.854,-1.98 -6.459,-5.071 -7.766,-7.503 -1.338,-2.455 -1.567,-4.191 -1.37,-4.247 0.255,-0.091 0.893,1.459 2.408,3.596 1.491,2.13 4.014,4.811 7.52,6.613 3.507,1.799 7.156,2.287 9.756,2.258 C -1.706,0.124 -0.075,-0.26 0,0"
             style="fill:#d667af;fill-opacity:1;fill-rule:nonzero;stroke:none"
             id="path416" /></g><g
           id="g418"
           transform="translate(624.0581,288.4115)"><path
             d="m 0,0 c 0.199,-0.094 0.798,0.572 1.183,1.938 0.383,1.332 0.463,3.471 -0.646,5.478 -1.134,2.017 -3.1,3.044 -4.526,3.239 -1.461,0.216 -2.306,-0.229 -2.259,-0.434 0.033,-0.258 0.847,-0.293 1.941,-0.749 1.086,-0.433 2.483,-1.39 3.331,-2.9 C -0.126,5.042 0.019,3.345 -0.027,2.13 -0.066,0.903 -0.234,0.1 0,0"
             style="fill:#d667af;fill-opacity:1;fill-rule:nonzero;stroke:none"
             id="path420" /></g><g
           id="g422"
           transform="translate(606.8998,344.6478)"><path
             d="m 0,0 c -0.053,1.76 -0.006,3.492 0.132,5.187 -6.901,-3.493 -15.068,-5.739 -23.905,-6.233 -14.509,-0.809 -27.752,3.27 -36.84,10.34 l 0.029,0.086 -0.387,-1.115 c 0.7,-1.375 1.634,-2.651 2.635,-3.831 6.212,-7.317 15.302,-12.123 24.848,-13.136 9.545,-1.013 19.442,1.777 27.052,7.628 -1.151,-6.355 0.769,-13.099 4.7,-18.224 3.764,-4.908 9.26,-8.34 15.201,-10.079 C 5.761,-23.562 0.38,-12.662 0,0"
             style="fill:#d667af;fill-opacity:1;fill-rule:nonzero;stroke:none"
             id="path424" /></g><g
           id="g426"
           transform="translate(495.0716,417.9266)"><path
             d="m 0,0 h -24.967 c -3.559,0 -6.443,2.885 -6.443,6.443 v 0.635 c 0,3.559 2.884,6.444 6.443,6.444 H 0 c 3.558,0 6.443,-2.885 6.443,-6.444 V 6.443 C 6.443,2.885 3.558,0 0,0"
             style="fill:#6ec6cc;fill-opacity:1;fill-rule:nonzero;stroke:none"
             id="path428" /></g><g
           id="g430"
           transform="translate(170.1663,113.2667)"><path
             d="m 0,0 h -71.717 c -6.984,0 -12.647,5.662 -12.647,12.647 v 0 c 0,6.985 5.663,12.647 12.647,12.647 H 0 c 6.985,0 12.647,-5.662 12.647,-12.647 v 0 C 12.647,5.662 6.985,0 0,0"
             style="fill:#6ec6cc;fill-opacity:1;fill-rule:nonzero;stroke:none"
             id="path432" /></g></g></g><text
       transform="matrix(1,0,0,-1,105.5757,122.5107)"
       style="font-variant:normal;font-weight:300;font-stretch:normal;font-size:14.4207px;font-family:'Mohave Light';-inkscape-font-specification:Mohave-Light;writing-mode:lr-tb;fill:#ffffff;fill-opacity:1;fill-rule:nonzero;stroke:none"
       id="text436"><tspan
         x="0 4.282948 11.11836 18.025875 25.135281 28.394358 39.455036 46.348129 50.631077"
         y="0"
         sodipodi:role="line"
         id="tspan434">read more</tspan></text><text
       transform="matrix(1,0,0,-1,85.8037,251.5093)"
       style="font-variant:normal;font-weight:bold;font-stretch:normal;font-size:46.807px;font-family:'Mohave Bold';-inkscape-font-specification:Mohave-Bold;writing-mode:lr-tb;fill:#fbc33b;fill-opacity:1;fill-rule:nonzero;stroke:none"
       id="text442"><tspan
         x="0 12.263434 30.705393 49.428192 58.930012 68.291412 86.733368 104.47322 118.60894 137.33174 151.46745"
         y="0"
         sodipodi:role="line"
         id="tspan438">real estate</tspan><tspan
         x="0 9.5018206 28.786304 46.947422 65.389381 83.129234 97.264946 127.64269 146.08464 165.8372"
         y="36.415848"
         sodipodi:role="line"
         id="tspan440">investment</tspan></text><text
       transform="matrix(1,0,0,-1,85.8027,200.6748)"
       style="font-variant:normal;font-weight:300;font-stretch:normal;font-size:7.7943px;font-family:'Mohave Light';-inkscape-font-specification:Mohave-Light;writing-mode:lr-tb;fill:#9b87ff;fill-opacity:1;fill-rule:nonzero;stroke:none"
       id="text454"><tspan
         x="0 3.7022924 7.8956261 10.678191 14.840347 21.286234 23.515404 25.744574 30.047026 33.990944 38.301189 44.747078 46.976246 51.286495 55.479828 57.708996 61.902332 64.684898 66.914062 70.857979 73.087151 76.275017 78.504189 82.705315 89.151207 93.313362 96.501228 99.182465 101.41164 105.46468 109.658 113.96825 117.91217 122.07433 126.12737 129.31523 133.47739 136.66525 140.97551 143.75807 145.98724 150.18837 154.49861 156.72778 161.03024 163.25941 167.20332 171.25636 173.48553 177.79578 182.02029"
         y="0"
         sodipodi:role="line"
         id="tspan444">Lorem ipsum dolor sit amet, consectetur adipiscing </tspan><tspan
         x="0 4.1621561 6.391326 8.6204958 11.808365 14.489604 16.718773 20.662689 24.824846 29.135094 31.364264 35.674511 39.867844 42.097015 46.259171 48.488338 52.798588 56.742504 63.188389 67.381721 71.691971 73.921143 77.109009 81.271164 87.717049 92.019508 96.212837 98.995407 101.22457 103.45374 107.76399 111.81702 114.0462 118.35645 120.58562 124.89587 129.20612 133.51636 136.70422 138.9334 143.24365 146.43152 148.66069 150.88985 155.09099 159.40123 163.59456 166.37712 170.53929 172.76845 176.9306 180.11848"
         y="8.4022551"
         sodipodi:role="line"
         id="tspan446">elit, sed do eiusmod tempor incididunt ut labore et </tspan><tspan
         x="0 4.3102479 8.503581 10.732751 14.926085 17.708649 21.870806 24.099976 30.545862 34.74699 38.9715 43.28175 47.482876 49.712044 53.913174 56.142342 58.371513 62.673965 66.984215 71.185341 73.866585 76.095749 80.819099 84.006966 86.236137 90.398293 94.708542 96.937706 103.3836 105.61276 109.8139 114.12414 116.35331 122.79919 125.02837 129.33861 131.56778 138.01367 140.24284 144.0145 148.17665 152.48691 154.71608 158.91721 165.36308 168.04433 170.2735 174.57596 178.8862 181.11537 185.05928"
         y="16.80451"
         sodipodi:role="line"
         id="tspan448">dolore magna aliqua. Ut enim ad minim veniam, quis </tspan><tspan
         x="0 4.3102479 8.503581 12.447497 15.635365 18.417931 22.728178 27.038427 29.267597 33.429752 36.999542 41.161697 43.944263 47.997299 50.226471 53.414337 57.615467 60.803333 63.032505 67.225838 71.536087 73.765259 78.0755 80.304672 82.533844 86.73497 93.180855 97.233894 101.42722 103.65639 105.88557 110.08669 114.39694 118.59027 121.37284 123.60201 127.54593 129.7751 134.08534 136.31451 140.25842 142.48759 144.71677 149.02702 152.21489 154.44406 158.64519 160.87436 163.10352 167.40598 171.71622 173.94539 178.24785 180.47702 184.63918 188.28691"
         y="25.206766"
         sodipodi:role="line"
         id="tspan450">nostrud exercitation ullamco laboris nisi ut aliquip ex </tspan><tspan
         x="0 4.1621561 8.3632841 10.592454 14.64549 18.838823 25.28471 31.730595 35.923927 40.234177 44.427509 46.656681 50.709717 54.903049 59.213299 63.157211 67.319366 71.621826 75.932068 80.133202 83.321068"
         y="33.60902"
         sodipodi:role="line"
         id="tspan452">ea commodo consequat.</tspan></text><text
       transform="matrix(0.99362222,0,0,-1,473.0024,422.2329)"
       style="font-variant:normal;font-weight:500;font-stretch:normal;font-size:9px;font-family:'Mohave Medium';-inkscape-font-specification:Mohave-Medium;writing-mode:lr-tb;fill:#615bbc;fill-opacity:1;fill-rule:nonzero;stroke:none"
       id="text460"><tspan
         x="0 4.5539999 8.8830004 15.561"
         y="0"
         sodipodi:role="line"
         id="tspan456">home</tspan><tspan
         x="52.569 57.123001 61.452 65.997002 70.146004 74.457001 108.981 111.447 115.983 119.286 153.261 157.446 161.77499 166.311 169.722 174.078 178.263"
         y="0"
         sodipodi:role="line"
         id="tspan458">housesinfocontact</tspan></text></g></svg>
