<?xml version="1.0" standalone="no"?>
<!DOCTYPE svg PUBLIC "-//W3C//DTD SVG 20010904//EN"
 "http://www.w3.org/TR/2001/REC-SVG-20010904/DTD/svg10.dtd">
<svg version="1.0" xmlns="http://www.w3.org/2000/svg"
 width="750.000000pt" height="500.000000pt" viewBox="0 0 750.000000 500.000000"
 preserveAspectRatio="xMidYMid meet">
<metadata>
Created by potrace 1.16, written by Peter Selinger 2001-2019
</metadata>
<g transform="translate(0.000000,500.000000) scale(0.100000,-0.100000)"
fill="#000000" stroke="none">
<path d="M5681 3884 c-107 -29 -191 -90 -262 -192 -70 -100 -102 -241 -134
-587 -20 -211 -39 -317 -68 -375 -18 -36 -34 -50 -84 -76 -89 -46 -118 -69
-137 -108 -19 -40 -38 -134 -31 -147 3 -4 63 41 133 102 156 134 208 162 300
162 72 -1 116 -7 158 -23 15 -6 28 -9 30 -8 1 2 0 37 -3 78 l-6 75 -53 24
c-107 47 -180 151 -191 271 -6 64 8 120 89 346 l39 112 64 -33 c136 -71 323
-84 471 -32 l71 25 7 -69 c15 -165 106 -291 236 -328 28 -8 59 -27 81 -51 l36
-37 39 141 c34 125 38 154 39 256 0 103 -3 120 -25 164 -42 82 -138 155 -339
255 -132 67 -329 90 -460 55z"/>
<path d="M6346 2847 c-56 -37 -129 -42 -184 -14 l-34 16 -48 -38 c-27 -21 -74
-49 -104 -62 l-56 -23 0 -54 0 -55 65 7 c92 9 187 -8 275 -51 59 -28 95 -56
165 -127 83 -84 100 -107 202 -291 61 -110 117 -212 124 -227 20 -45 29 -33
29 38 0 129 -19 165 -147 271 l-38 32 0 128 c0 154 -7 171 -108 252 -59 47
-69 60 -83 108 -10 33 -13 68 -10 89 4 19 6 34 4 33 -2 0 -25 -15 -52 -32z"/>
<path d="M6167 1888 c-14 -46 -29 -96 -33 -112 l-7 -30 44 26 c24 14 59 33 77
42 l33 17 -38 69 c-20 39 -40 70 -44 70 -4 0 -18 -37 -32 -82z"/>
<path d="M5105 1888 c-82 -68 -185 -125 -242 -134 -26 -4 -61 0 -98 11 -31 9
-59 14 -61 12 -4 -3 -22 -199 -20 -204 6 -9 153 -30 184 -26 39 5 41 7 68 75
15 38 31 71 35 73 4 3 10 -26 13 -63 8 -78 14 -102 25 -102 5 0 25 27 45 59
20 32 72 92 115 134 l80 74 -37 75 -38 74 -69 -58z"/>
<path d="M6680 1489 c-47 -44 -109 -97 -139 -117 l-54 -37 79 -3 c44 -2 112 0
152 3 66 6 74 9 83 32 5 13 9 40 9 58 0 33 -25 123 -38 137 -4 3 -45 -30 -92
-73z"/>
<path d="M4865 993 c-34 -9 -63 -33 -75 -63 l-12 -30 -30 25 c-16 14 -34 25
-39 25 -18 0 -59 -49 -59 -70 0 -19 6 -20 140 -20 l140 0 0 65 c0 36 -4 65 -9
65 -5 0 -15 2 -23 4 -7 2 -22 1 -33 -1z"/>
</g>
</svg>
