<?xml version="1.0" encoding="UTF-8" standalone="no"?>
<!-- Created with Inkscape (http://www.inkscape.org/) -->

<svg
   version="1.1"
   id="svg2"
   xml:space="preserve"
   width="1000"
   height="666.66669"
   viewBox="0 0 1000 666.66669"
   sodipodi:docname="4380897.ai"
   xmlns:inkscape="http://www.inkscape.org/namespaces/inkscape"
   xmlns:sodipodi="http://sodipodi.sourceforge.net/DTD/sodipodi-0.dtd"
   xmlns="http://www.w3.org/2000/svg"
   xmlns:svg="http://www.w3.org/2000/svg"><defs
     id="defs6"><clipPath
       clipPathUnits="userSpaceOnUse"
       id="clipPath18"><path
         d="M 0,0 H 750 V 500 H 0 Z"
         id="path16" /></clipPath><linearGradient
       x1="0"
       y1="0"
       x2="1"
       y2="0"
       gradientUnits="userSpaceOnUse"
       gradientTransform="matrix(0,-1011.5336,-1011.5336,0,375,490.26785)"
       spreadMethod="pad"
       id="linearGradient34"><stop
         style="stop-opacity:0;stop-color:#ffffff"
         offset="0"
         id="stop28" /><stop
         style="stop-opacity:1;stop-color:#ffffff"
         offset="0.997821"
         id="stop30" /><stop
         style="stop-opacity:1;stop-color:#ffffff"
         offset="1"
         id="stop32" /></linearGradient><mask
       maskUnits="userSpaceOnUse"
       x="0"
       y="0"
       width="1"
       height="1"
       id="mask36"><g
         id="g46"><g
           id="g44"><g
             id="g42"><g
               id="g40"><path
                 d="M -32768,32767 H 32767 V -32768 H -32768 Z"
                 style="fill:url(#linearGradient34);stroke:none"
                 id="path38" /></g></g></g></g></mask><linearGradient
       x1="0"
       y1="0"
       x2="1"
       y2="0"
       gradientUnits="userSpaceOnUse"
       gradientTransform="matrix(0,-1011.5336,-1011.5336,0,375,490.26785)"
       spreadMethod="pad"
       id="linearGradient58"><stop
         style="stop-opacity:1;stop-color:#3300bf"
         offset="0"
         id="stop52" /><stop
         style="stop-opacity:1;stop-color:#3300bf"
         offset="0.997821"
         id="stop54" /><stop
         style="stop-opacity:1;stop-color:#3300bf"
         offset="1"
         id="stop56" /></linearGradient><clipPath
       clipPathUnits="userSpaceOnUse"
       id="clipPath68"><path
         d="M 0,500 H 750 V 0 H 0 Z"
         id="path66" /></clipPath><clipPath
       clipPathUnits="userSpaceOnUse"
       id="clipPath76"><path
         d="M 46.5931,442.139 H 723.433 V 40.039 H 46.5931 Z"
         id="path74" /></clipPath><clipPath
       clipPathUnits="userSpaceOnUse"
       id="clipPath80"><path
         d="M 718.425,40.039 H 51.602 c -2.767,0 -5.009,2.242 -5.009,5.009 V 437.13 c 0,2.766 2.242,5.009 5.009,5.009 h 666.823 c 2.765,0 5.008,-2.243 5.008,-5.009 V 45.048 c 0,-2.767 -2.243,-5.009 -5.008,-5.009"
         id="path78" /></clipPath><linearGradient
       x1="0"
       y1="0"
       x2="1"
       y2="0"
       gradientUnits="userSpaceOnUse"
       gradientTransform="matrix(-2.5264254,-410.52661,-410.52661,2.5264254,386.16293,427.92801)"
       spreadMethod="pad"
       id="linearGradient90"><stop
         style="stop-opacity:0;stop-color:#ffffff"
         offset="0"
         id="stop86" /><stop
         style="stop-opacity:1;stop-color:#ffffff"
         offset="1"
         id="stop88" /></linearGradient><mask
       maskUnits="userSpaceOnUse"
       x="0"
       y="0"
       width="1"
       height="1"
       id="mask92"><g
         id="g102"><g
           id="g100"><g
             id="g98"><g
               id="g96"><path
                 d="M -32768,32767 H 32767 V -32768 H -32768 Z"
                 style="fill:url(#linearGradient90);stroke:none"
                 id="path94" /></g></g></g></g></mask><linearGradient
       x1="0"
       y1="0"
       x2="1"
       y2="0"
       gradientUnits="userSpaceOnUse"
       gradientTransform="matrix(-2.5264254,-410.52661,-410.52661,2.5264254,386.16293,427.92801)"
       spreadMethod="pad"
       id="linearGradient108"><stop
         style="stop-opacity:1;stop-color:#00bf86"
         offset="0"
         id="stop104" /><stop
         style="stop-opacity:1;stop-color:#00bf86"
         offset="1"
         id="stop106" /></linearGradient><clipPath
       clipPathUnits="userSpaceOnUse"
       id="clipPath156"><path
         d="M 0,500 H 750 V 0 H 0 Z"
         id="path154" /></clipPath><clipPath
       clipPathUnits="userSpaceOnUse"
       id="clipPath172"><path
         d="M 0,500 H 750 V 0 H 0 Z"
         id="path170" /></clipPath><clipPath
       clipPathUnits="userSpaceOnUse"
       id="clipPath192"><path
         d="M 0,500 H 750 V 0 H 0 Z"
         id="path190" /></clipPath><clipPath
       clipPathUnits="userSpaceOnUse"
       id="clipPath208"><path
         d="M 0,500 H 750 V 0 H 0 Z"
         id="path206" /></clipPath><clipPath
       clipPathUnits="userSpaceOnUse"
       id="clipPath216"><path
         d="m 357.446,71.4797 h 302.09 v -5.5383 h -302.09 z"
         id="path214" /></clipPath><clipPath
       clipPathUnits="userSpaceOnUse"
       id="clipPath394"><path
         d="m 581.404,198.452 h 17.808 v -50.757 h -17.808 z"
         id="path392" /></clipPath><clipPath
       clipPathUnits="userSpaceOnUse"
       id="clipPath442"><path
         d="m 570.863,282.459 h 5.753 v -6.655 h -5.753 z"
         id="path440" /></clipPath><clipPath
       clipPathUnits="userSpaceOnUse"
       id="clipPath494"><path
         d="m 454.664,266.949 h 2.437 v -22.937 h -2.437 z"
         id="path492" /></clipPath><clipPath
       clipPathUnits="userSpaceOnUse"
       id="clipPath522"><path
         d="m 419.167,261.723 h 9.207 v -11.142 h -9.207 z"
         id="path520" /></clipPath><clipPath
       clipPathUnits="userSpaceOnUse"
       id="clipPath538"><path
         d="m 432.018,274.369 h 3.556 v -28.492 h -3.556 z"
         id="path536" /></clipPath><clipPath
       clipPathUnits="userSpaceOnUse"
       id="clipPath602"><path
         d="m 451.552,283.84 h 4.888 v -6.903 h -4.888 z"
         id="path600" /></clipPath></defs><sodipodi:namedview
     id="namedview4"
     pagecolor="#ffffff"
     bordercolor="#666666"
     borderopacity="1.0"
     inkscape:pageshadow="2"
     inkscape:pageopacity="0.0"
     inkscape:pagecheckerboard="0" /><g
     id="g8"
     inkscape:groupmode="layer"
     inkscape:label="4380897"
     transform="matrix(1.3333333,0,0,-1.3333333,0,666.66667)"><path
       d="M 0,0 H 750 V 500 H 0 Z"
       style="fill:#1ca3d9;fill-opacity:1;fill-rule:nonzero;stroke:none"
       id="path10" /><g
       id="g12"><g
         id="g14"
         clip-path="url(#clipPath18)"><g
           id="g20"><g
             id="g22" /><g
             id="g48"
             mask="url(#mask36)"><g
               id="g50"><path
                 d="M 0,0 H 750 V 500 H 0 Z"
                 style="fill:url(#linearGradient58);stroke:none"
                 id="path60" /></g></g></g></g></g><g
       id="g62"><g
         id="g64"
         clip-path="url(#clipPath68)"><g
           id="g70"><g
             id="g72" /><g
             id="g126"><g
               clip-path="url(#clipPath76)"
               id="g124"><g
                 id="g122"><g
                   clip-path="url(#clipPath80)"
                   id="g120"><g
                     id="g118"><g
                       id="g110" /><g
                       mask="url(#mask92)"
                       id="g116"><g
                         id="g114"><path
                           d="M 718.425,40.039 H 51.602 c -2.767,0 -5.009,2.242 -5.009,5.009 V 437.13 c 0,2.766 2.242,5.009 5.009,5.009 h 666.823 c 2.765,0 5.008,-2.243 5.008,-5.009 V 45.048 c 0,-2.767 -2.243,-5.009 -5.008,-5.009"
                           style="fill:url(#linearGradient108);stroke:none"
                           id="path112" /></g></g></g></g></g></g></g></g><g
           id="g128"
           transform="translate(713.4199,446.04)"><path
             d="m 0,0 v -392.08 c 0,-2.77 -2.24,-5.01 -5.01,-5.01 h -666.82 c -2.77,0 -5.01,2.24 -5.01,5.01 V 0 c 0,2.77 2.24,5.01 5.01,5.01 H -5.01 C -2.24,5.01 0,2.77 0,0"
             style="fill:#e2ecfb;fill-opacity:1;fill-rule:nonzero;stroke:none"
             id="path130" /></g><g
           id="g132"
           transform="translate(685.4502,451.0498)"><path
             d="m 0,0 -150.03,-402.1 h -222.31 c -1.25,21.26 -0.98,42.63 4.53,63.1 7.02,26.08 23.95,50.84 49.06,60.79 12.939,5.12 27.109,6.05 40.609,9.41 13.5,3.37 27.33,10.1 33.571,22.54 7.65,15.24 1.719,34.33 8.08,50.15 9.51,23.66 40.2,29.03 59.98,45.12 10.15,8.27 17.42,19.49 24.119,30.73 15.301,25.69 28.631,52.65 46.411,76.68 12.53,16.95 27.68,32.57 45.48,43.58 z"
             style="fill:#fcbc3b;fill-opacity:1;fill-rule:nonzero;stroke:none"
             id="path134" /></g><g
           id="g136"
           transform="translate(713.4199,446.04)"><path
             d="m 0,0 v -392.08 c 0,-2.77 -2.24,-5.01 -5.01,-5.01 H -424.4 c 5.59,8.72 11.69,17.12 18.25,25.13 15.47,18.87 34,35.89 56.42,45.51 21.7,9.31 45.77,11.22 68.501,17.62 22.719,6.4 45.879,19.21 54.409,41.23 6.89,17.77 2.93,38.19 8.98,56.26 5.3,15.81 18.52,28.73 34.44,33.68 9.82,3.05 20.5,3.23 29.86,7.49 14.34,6.54 23.04,21.62 27.08,36.85 4.03,15.23 4.31,31.19 7.01,46.71 6.19,35.64 25.8,68.69 53.721,91.62 H -5.01 C -2.24,5.01 0,2.77 0,0"
             style="fill:#f89a16;fill-opacity:1;fill-rule:nonzero;stroke:none"
             id="path138" /></g></g></g><text
       transform="matrix(1,0,0,-1,72.8184,234.4976)"
       style="font-variant:normal;font-weight:normal;font-stretch:normal;font-size:11.4628px;font-family:Overpass;-inkscape-font-specification:Overpass-Regular;writing-mode:lr-tb;fill:#293753;fill-opacity:1;fill-rule:nonzero;stroke:none"
       id="text148"><tspan
         x="0 6.4077053 12.803947 17.262978 23.429964 33.127491 35.821251 38.7328 45.197819 50.573875 57.027431 66.72496 69.418716 75.860809 82.25705 85.260307 91.656548 96.115578 98.809334 104.18539 107.09694 111.38403 114.07779 120.10722 129.80475 135.85596 140.14305 142.72218 145.41594 151.14734 157.54358 163.99713 169.37318 175.54018 181.15695 185.32941 191.3829 195.38228 201.83583 208.00282 212.46185"
         y="0"
         sodipodi:role="line"
         id="tspan140">Lorem ipsum dolor sit amet, consectetuer </tspan><tspan
         x="0 6.0294328 12.471526 15.383078 21.848097 24.759647 30.135702 35.8671 38.778652 45.232208 51.685764 54.379524 60.546509 63.549763 66.461311 70.748398 73.32753 76.021286 81.397346 87.564331 94.006424 96.70018 103.14227 106.05383 112.08326 121.78078 124.47455 130.9281 137.32434 143.77789 150.23146 159.92899 169.45457 175.52986 178.22362 184.67717 187.58871 194.03082 200.48438 203.17813 209.34512 215.79868 218.71022 224.08627 233.78381 240.18005 246.62215"
         y="15.76135"
         sodipodi:role="line"
         id="tspan142">adipiscing elit, sed diam nonummy nibh euismod </tspan><tspan
         x="0 4.287087 7.1986384 13.652195 19.383595 22.295147 28.73724 35.190796 41.644352 45.931438 48.625198 55.078754 59.365841 62.059601 65.062851 71.092285 77.488525 81.947556 88.11454 94.166901 98.453987 101.14775 107.58984 113.98608 116.98933 123.38558 127.84461 134.0116 136.70535 146.40288 152.43231 158.88586 165.33943 171.36887 174.06262 180.09206 183.09531 186.00685 192.46042 198.91397 204.94341 214.64093 217.33469 223.50168 227.73145 233.76088 238.04797"
         y="31.522699"
         sodipodi:role="line"
         id="tspan144">tincidunt ut laoreet dolore magna aliquam erat </tspan><tspan
         x="0 5.8689537 12.265196 15.26845 21.722006 26.009092 32.474113 38.503544 42.790634"
         y="47.28405"
         sodipodi:role="line"
         id="tspan146">volutpat.</tspan></text><g
       id="g150"><g
         id="g152"
         clip-path="url(#clipPath156)"><g
           id="g158"
           transform="translate(175.1426,131.085)"><path
             d="m 0,0 h -89.634 c -7.463,0 -13.512,6.049 -13.512,13.512 0,7.462 6.049,13.51 13.512,13.51 H 0 c 7.462,0 13.511,-6.048 13.511,-13.51 C 13.511,6.049 7.462,0 0,0"
             style="fill:#fa6920;fill-opacity:1;fill-rule:nonzero;stroke:none"
             id="path160" /></g></g></g><text
       transform="matrix(1,0,0,-1,88.8657,138.2187)"
       style="font-variant:normal;font-weight:900;font-stretch:normal;font-size:17.3165px;font-family:'Overpass Black';-inkscape-font-specification:Overpass-Black;writing-mode:lr-tb;fill:#ffffff;fill-opacity:1;fill-rule:nonzero;stroke:none"
       id="text164"><tspan
         x="0 11.896436 24.88381 36.884144 47.358894 60.6926 73.731926"
         y="0"
         sodipodi:role="line"
         id="tspan162">EXPLORE</tspan></text><g
       id="g166"><g
         id="g168"
         clip-path="url(#clipPath172)"><g
           id="g174"
           transform="translate(175.1426,159.71)"><path
             d="m 0,0 h -89.634 c -8.334,0 -15.114,-6.78 -15.114,-15.113 0,-8.334 6.78,-15.114 15.114,-15.114 H 0 c 8.333,0 15.113,6.78 15.113,15.114 C 15.113,-6.78 8.333,0 0,0 m 0,-1.603 c 7.462,0 13.511,-6.048 13.511,-13.51 0,-7.463 -6.049,-13.512 -13.511,-13.512 h -89.634 c -7.463,0 -13.512,6.049 -13.512,13.512 0,7.462 6.049,13.51 13.512,13.51 H 0"
             style="fill:#ffffff;fill-opacity:1;fill-rule:nonzero;stroke:none"
             id="path176" /></g></g></g><text
       transform="matrix(1,0,0,-1,72.8184,408.2139)"
       style="font-variant:normal;font-weight:800;font-stretch:normal;font-size:27.2688px;font-family:'Poppins ExtraBold';-inkscape-font-specification:Poppins-ExtraBold;writing-mode:lr-tb;fill:#293753;fill-opacity:1;fill-rule:nonzero;stroke:none"
       id="text180"><tspan
         x="0 13.416249 34.931332 55.573814"
         y="0"
         sodipodi:role="line"
         id="tspan178">LOGO</tspan></text><text
       transform="matrix(1,0,0,-1,281.9844,414.3184)"
       style="font-variant:normal;font-weight:900;font-stretch:normal;font-size:12px;font-family:'Overpass Black';-inkscape-font-specification:Overpass-Black;writing-mode:lr-tb;fill:#386d8f;fill-opacity:1;fill-rule:nonzero;stroke:none"
       id="text184"><tspan
         x="0 11.184 22.224001 34.368 60.251999 71.435997 82.199997 93.239998 104.328 114.36 119.856 130.944 155.256 165.37199 176.01601 186.78 195.96001 205.8252 215.7132 225.46919 250.78799 260.64001 270.68399 279.92401"
         y="0"
         sodipodi:role="line"
         id="tspan182">HOMEABOUT USPROJECTSSELL</tspan></text><g
       id="g186"><g
         id="g188"
         clip-path="url(#clipPath192)"><g
           id="g194"
           transform="translate(663.7168,405.2065)"><path
             d="m 0,0 h -58.002 c -7.089,0 -12.836,5.747 -12.836,12.836 0,7.09 5.747,12.837 12.836,12.837 H 0 c 7.09,0 12.837,-5.747 12.837,-12.837 C 12.837,5.747 7.09,0 0,0"
             style="fill:#fa6920;fill-opacity:1;fill-rule:nonzero;stroke:none"
             id="path196" /></g></g></g><text
       transform="matrix(1,0,0,-1,607.6445,412.5449)"
       style="font-variant:normal;font-weight:900;font-stretch:normal;font-size:15.3759px;font-family:'Overpass Black';-inkscape-font-specification:Overpass-Black;writing-mode:lr-tb;fill:#ffffff;fill-opacity:1;fill-rule:nonzero;stroke:none"
       id="text200"><tspan
         x="0 8.5336246 19.604273 29.798494 33.765476 38.547382"
         y="0"
         sodipodi:role="line"
         id="tspan198">LOG IN</tspan></text><g
       id="g202"><g
         id="g204"
         clip-path="url(#clipPath208)"><g
           id="g210"><g
             id="g212" /><g
             id="g224"><g
               clip-path="url(#clipPath216)"
               opacity="0.410004"
               id="g222"><g
                 transform="translate(659.5361,68.7109)"
                 id="g220"><path
                   d="m 0,0 c 0,-1.529 -67.625,-2.77 -151.045,-2.77 -83.42,0 -151.045,1.241 -151.045,2.77 0,1.529 67.625,2.769 151.045,2.769 C -67.625,2.769 0,1.529 0,0"
                   style="fill:#77adfc;fill-opacity:1;fill-rule:nonzero;stroke:none"
                   id="path218" /></g></g></g></g><path
           d="M 351.274,246.387 H 485.085 V 90.475 H 351.274 Z"
           style="fill:#c3edf9;fill-opacity:1;fill-rule:nonzero;stroke:none"
           id="path226" /><g
           id="g228"
           transform="translate(567.8574,354.6611)"><path
             d="m 0,0 h -178.179 l -50.167,-114.012 h 160.643 z"
             style="fill:#386d8f;fill-opacity:1;fill-rule:nonzero;stroke:none"
             id="path230" /></g><g
           id="g232"
           transform="translate(500.1543,269.0469)"><path
             d="M 0,0 87.444,110.578 174.888,0 V -178.689 H 0 Z"
             style="fill:#c3edf9;fill-opacity:1;fill-rule:nonzero;stroke:none"
             id="path234" /></g><g
           id="g236"
           transform="translate(500.1543,269.0469)"><path
             d="M 0,0 87.444,110.578 174.888,0"
             style="fill:none;stroke:#4f86ac;stroke-width:9.775;stroke-linecap:square;stroke-linejoin:miter;stroke-miterlimit:10;stroke-dasharray:none;stroke-opacity:1"
             id="path238" /></g><g
           id="g240"
           transform="translate(457.3711,222.1074)"><path
             d="M 0,0 50.517,55.424 101.034,0 V -131.633 H 0 Z"
             style="fill:#dff8fc;fill-opacity:1;fill-rule:nonzero;stroke:none"
             id="path242" /></g><g
           id="g244"
           transform="translate(457.3711,222.1074)"><path
             d="M 0,0 50.517,55.424 101.034,0"
             style="fill:none;stroke:#6597b8;stroke-width:9.775;stroke-linecap:square;stroke-linejoin:miter;stroke-miterlimit:10;stroke-dasharray:none;stroke-opacity:1"
             id="path246" /></g><path
           d="M 535.314,97.844 H 480.46 v -7.369 h 54.854 z"
           style="fill:#ffffff;fill-opacity:1;fill-rule:nonzero;stroke:none"
           id="path248" /><path
           d="m 530.082,105.213 h -44.389 v -7.369 h 44.389 z"
           style="fill:#ffffff;fill-opacity:1;fill-rule:nonzero;stroke:none"
           id="path250" /><path
           d="m 530.082,98.599 h -44.389 v -0.755 h 44.389 z"
           style="fill:#c3edf9;fill-opacity:1;fill-rule:nonzero;stroke:none"
           id="path252" /><path
           d="M 535.314,91.229 H 480.46 v -0.755 h 54.854 z"
           style="fill:#c3edf9;fill-opacity:1;fill-rule:nonzero;stroke:none"
           id="path254" /><g
           id="g256"
           transform="translate(525.8262,105.2129)"><path
             d="m 0,0 h -35.877 v 47.803 c 0,9.907 8.031,17.938 17.939,17.938 C -8.031,65.741 0,57.71 0,47.803 Z"
             style="fill:#74a4c5;fill-opacity:1;fill-rule:nonzero;stroke:none"
             id="path258" /></g><path
           d="m 514.899,117.433 h -12.816 v 3.869 h 12.816 z"
           style="fill:#a7e2ef;fill-opacity:1;fill-rule:nonzero;stroke:none"
           id="path260" /><g
           id="g262"
           transform="translate(495.4336,136.7783)"><path
             d="M 0,0 V -12.816"
             style="fill:none;stroke:#2a5067;stroke-width:1.901;stroke-linecap:round;stroke-linejoin:miter;stroke-miterlimit:10;stroke-dasharray:none;stroke-opacity:1"
             id="path264" /></g><g
           id="g266"
           transform="translate(530.6904,173.2295)"><path
             d="M 0,0 -22.803,14.092 -45.605,0"
             style="fill:none;stroke:#6597b8;stroke-width:4.616;stroke-linecap:square;stroke-linejoin:miter;stroke-miterlimit:10;stroke-dasharray:none;stroke-opacity:1"
             id="path268" /></g><g
           id="g270"
           transform="translate(522.748,212.3145)"><path
             d="m 0,0 h -29.72 v 9.917 c 0,8.207 6.654,14.859 14.86,14.859 C -6.653,24.776 0,18.124 0,9.917 Z"
             style="fill:#c3edf9;fill-opacity:1;fill-rule:nonzero;stroke:none"
             id="path272" /></g><g
           id="g274"
           transform="translate(507.8877,237.0908)"><path
             d="M 0,0 V -24.422"
             style="fill:none;stroke:#a7e2ef;stroke-width:1.358;stroke-linecap:butt;stroke-linejoin:miter;stroke-miterlimit:10;stroke-dasharray:none;stroke-opacity:1"
             id="path276" /></g><g
           id="g278"
           transform="translate(521.6592,209.6602)"><path
             d="m 0,0 h -27.542 c -1.383,0 -2.505,1.121 -2.505,2.505 v 1.716 c 0,1.383 1.122,2.504 2.505,2.504 H 0 c 1.383,0 2.504,-1.121 2.504,-2.504 V 2.505 C 2.504,1.121 1.383,0 0,0"
             style="fill:#6597b8;fill-opacity:1;fill-rule:nonzero;stroke:none"
             id="path280" /></g><path
           d="m 612.103,254.802 h -48.565 v 48.565 h 48.565 z"
           style="fill:#ffffff;fill-opacity:1;fill-rule:nonzero;stroke:#a7e2ef;stroke-width:5.702;stroke-linecap:butt;stroke-linejoin:miter;stroke-miterlimit:10;stroke-dasharray:none;stroke-opacity:1"
           id="path282" /><g
           id="g284"
           transform="translate(587.8193,303.3672)"><path
             d="M 0,0 V -49.204"
             style="fill:none;stroke:#a7e2ef;stroke-width:5.702;stroke-linecap:butt;stroke-linejoin:miter;stroke-miterlimit:10;stroke-dasharray:none;stroke-opacity:1"
             id="path286" /></g><g
           id="g288"
           transform="translate(574.7217,303.3672)"><path
             d="M 0,0 V -49.204"
             style="fill:none;stroke:#a7e2ef;stroke-width:1.901;stroke-linecap:butt;stroke-linejoin:miter;stroke-miterlimit:10;stroke-dasharray:none;stroke-opacity:1"
             id="path290" /></g><g
           id="g292"
           transform="translate(599.5488,303.3672)"><path
             d="M 0,0 V -49.204"
             style="fill:none;stroke:#a7e2ef;stroke-width:1.901;stroke-linecap:butt;stroke-linejoin:miter;stroke-miterlimit:10;stroke-dasharray:none;stroke-opacity:1"
             id="path294" /></g><g
           id="g296"
           transform="translate(612.1025,279.0845)"><path
             d="M 0,0 H -48.565"
             style="fill:none;stroke:#a7e2ef;stroke-width:5.702;stroke-linecap:butt;stroke-linejoin:miter;stroke-miterlimit:10;stroke-dasharray:none;stroke-opacity:1"
             id="path298" /></g><g
           id="g300"
           transform="translate(612.1025,291.0894)"><path
             d="M 0,0 H -48.565"
             style="fill:none;stroke:#a7e2ef;stroke-width:1.901;stroke-linecap:butt;stroke-linejoin:miter;stroke-miterlimit:10;stroke-dasharray:none;stroke-opacity:1"
             id="path302" /></g><g
           id="g304"
           transform="translate(612.1025,267.0791)"><path
             d="M 0,0 H -48.565"
             style="fill:none;stroke:#a7e2ef;stroke-width:1.901;stroke-linecap:butt;stroke-linejoin:miter;stroke-miterlimit:10;stroke-dasharray:none;stroke-opacity:1"
             id="path306" /></g><g
           id="g308"
           transform="translate(615.3643,244.9932)"><path
             d="m 0,0 h -55.207 c -1.355,0 -2.453,1.098 -2.453,2.452 v 1.821 c 0,1.354 1.098,2.452 2.453,2.452 H 0 c 1.354,0 2.451,-1.098 2.451,-2.452 V 2.452 C 2.451,1.098 1.354,0 0,0"
             style="fill:#6597b8;fill-opacity:1;fill-rule:nonzero;stroke:none"
             id="path310" /></g><path
           d="m 429.584,150.629 h -48.565 v 48.565 h 48.565 z"
           style="fill:#ffffff;fill-opacity:1;fill-rule:nonzero;stroke:#a7e2ef;stroke-width:5.702;stroke-linecap:butt;stroke-linejoin:miter;stroke-miterlimit:10;stroke-dasharray:none;stroke-opacity:1"
           id="path312" /><g
           id="g314"
           transform="translate(405.3008,199.1943)"><path
             d="M 0,0 V -49.204"
             style="fill:none;stroke:#a7e2ef;stroke-width:5.702;stroke-linecap:butt;stroke-linejoin:miter;stroke-miterlimit:10;stroke-dasharray:none;stroke-opacity:1"
             id="path316" /></g><g
           id="g318"
           transform="translate(392.2031,199.1943)"><path
             d="M 0,0 V -49.204"
             style="fill:none;stroke:#a7e2ef;stroke-width:1.901;stroke-linecap:butt;stroke-linejoin:miter;stroke-miterlimit:10;stroke-dasharray:none;stroke-opacity:1"
             id="path320" /></g><g
           id="g322"
           transform="translate(417.0303,199.1943)"><path
             d="M 0,0 V -49.204"
             style="fill:none;stroke:#a7e2ef;stroke-width:1.901;stroke-linecap:butt;stroke-linejoin:miter;stroke-miterlimit:10;stroke-dasharray:none;stroke-opacity:1"
             id="path324" /></g><g
           id="g326"
           transform="translate(429.584,174.9111)"><path
             d="M 0,0 H -48.565"
             style="fill:none;stroke:#a7e2ef;stroke-width:5.702;stroke-linecap:butt;stroke-linejoin:miter;stroke-miterlimit:10;stroke-dasharray:none;stroke-opacity:1"
             id="path328" /></g><g
           id="g330"
           transform="translate(429.584,186.916)"><path
             d="M 0,0 H -48.565"
             style="fill:none;stroke:#a7e2ef;stroke-width:1.901;stroke-linecap:butt;stroke-linejoin:miter;stroke-miterlimit:10;stroke-dasharray:none;stroke-opacity:1"
             id="path332" /></g><g
           id="g334"
           transform="translate(429.584,162.9062)"><path
             d="M 0,0 H -48.565"
             style="fill:none;stroke:#a7e2ef;stroke-width:1.901;stroke-linecap:butt;stroke-linejoin:miter;stroke-miterlimit:10;stroke-dasharray:none;stroke-opacity:1"
             id="path336" /></g><g
           id="g338"
           transform="translate(432.8457,140.8203)"><path
             d="m 0,0 h -55.207 c -1.355,0 -2.452,1.098 -2.452,2.452 v 1.821 c 0,1.354 1.097,2.452 2.452,2.452 H 0 c 1.354,0 2.452,-1.098 2.452,-2.452 V 2.452 C 2.452,1.098 1.354,0 0,0"
             style="fill:#6597b8;fill-opacity:1;fill-rule:nonzero;stroke:none"
             id="path340" /></g><path
           d="m 637.383,150.629 h -48.565 v 48.565 h 48.565 z"
           style="fill:#ffffff;fill-opacity:1;fill-rule:nonzero;stroke:#a7e2ef;stroke-width:5.702;stroke-linecap:butt;stroke-linejoin:miter;stroke-miterlimit:10;stroke-dasharray:none;stroke-opacity:1"
           id="path342" /><g
           id="g344"
           transform="translate(613.1006,199.1943)"><path
             d="M 0,0 V -49.204"
             style="fill:none;stroke:#a7e2ef;stroke-width:5.702;stroke-linecap:butt;stroke-linejoin:miter;stroke-miterlimit:10;stroke-dasharray:none;stroke-opacity:1"
             id="path346" /></g><g
           id="g348"
           transform="translate(600.0029,199.1943)"><path
             d="M 0,0 V -49.204"
             style="fill:none;stroke:#a7e2ef;stroke-width:1.901;stroke-linecap:butt;stroke-linejoin:miter;stroke-miterlimit:10;stroke-dasharray:none;stroke-opacity:1"
             id="path350" /></g><g
           id="g352"
           transform="translate(624.8301,199.1943)"><path
             d="M 0,0 V -49.204"
             style="fill:none;stroke:#a7e2ef;stroke-width:1.901;stroke-linecap:butt;stroke-linejoin:miter;stroke-miterlimit:10;stroke-dasharray:none;stroke-opacity:1"
             id="path354" /></g><g
           id="g356"
           transform="translate(637.3828,174.9111)"><path
             d="M 0,0 H -48.565"
             style="fill:none;stroke:#a7e2ef;stroke-width:5.702;stroke-linecap:butt;stroke-linejoin:miter;stroke-miterlimit:10;stroke-dasharray:none;stroke-opacity:1"
             id="path358" /></g><g
           id="g360"
           transform="translate(637.3828,186.916)"><path
             d="M 0,0 H -48.565"
             style="fill:none;stroke:#a7e2ef;stroke-width:1.901;stroke-linecap:butt;stroke-linejoin:miter;stroke-miterlimit:10;stroke-dasharray:none;stroke-opacity:1"
             id="path362" /></g><g
           id="g364"
           transform="translate(637.3828,162.9062)"><path
             d="M 0,0 H -48.565"
             style="fill:none;stroke:#a7e2ef;stroke-width:1.901;stroke-linecap:butt;stroke-linejoin:miter;stroke-miterlimit:10;stroke-dasharray:none;stroke-opacity:1"
             id="path366" /></g><g
           id="g368"
           transform="translate(640.6445,140.8203)"><path
             d="m 0,0 h -55.207 c -1.355,0 -2.452,1.098 -2.452,2.452 v 1.821 c 0,1.354 1.097,2.452 2.452,2.452 H 0 c 1.354,0 2.452,-1.098 2.452,-2.452 V 2.452 C 2.452,1.098 1.354,0 0,0"
             style="fill:#6597b8;fill-opacity:1;fill-rule:nonzero;stroke:none"
             id="path370" /></g><g
           id="g372"
           transform="translate(457.3711,130.3701)"><path
             d="m 0,0 c 0,0 -4.262,5.948 -10.904,4.91 -6.644,-1.038 -8.927,-9.406 -8.097,-15.913 0,0 -13.394,11.149 -20.19,-1.935 0,0 -14.893,11.586 -23.404,-7.686 0,0 -6.85,17.438 -24.081,6.436 0,0 -10.817,12.04 -19.421,-2.492 0,0 -22.512,8.139 -29.778,-23.333 l 135.875,0 z"
             style="fill:#00bf86;fill-opacity:1;fill-rule:nonzero;stroke:none"
             id="path374" /></g><g
           id="g376"
           transform="translate(558.4053,130.3701)"><path
             d="m 0,0 c 0,0 4.261,5.948 10.904,4.91 6.643,-1.038 8.927,-9.406 8.096,-15.913 0,0 13.395,11.149 20.19,-1.935 0,0 14.893,11.586 23.405,-7.686 0,0 6.85,17.438 24.081,6.436 0,0 10.816,12.04 19.421,-2.492 0,0 22.512,8.139 29.778,-23.333 L 0,-40.013 Z"
             style="fill:#00bf86;fill-opacity:1;fill-rule:nonzero;stroke:none"
             id="path378" /></g><g
           id="g380"
           transform="translate(602.9189,81.3975)"><path
             d="m 0,0 -0.695,-13.502 h -33.049 c 0,0 0,3.161 2.802,5.101 2.801,1.94 17.134,9.097 17.134,9.097 z"
             style="fill:#b9cbdd;fill-opacity:1;fill-rule:nonzero;stroke:none"
             id="path382" /></g><g
           id="g384"
           transform="translate(602.9199,81.3975)"><path
             d="m 0,0 c -10.274,-1.797 -13.809,0.696 -13.809,0.696 -5.156,22.033 -6.97,46.863 -7.509,65.924 -0.518,18.368 0.146,31.382 0.146,31.382 l 17.464,19.053 c -0.106,-0.404 -0.211,-0.815 -0.311,-1.233 l -0.002,-0.001 C -12.403,81.058 0,0 0,0"
             style="fill:#6e85b7;fill-opacity:1;fill-rule:nonzero;stroke:none"
             id="path386" /></g><g
           id="g388"><g
             id="g390" /><g
             id="g402"><g
               clip-path="url(#clipPath394)"
               opacity="0.289993"
               id="g400"><g
                 transform="translate(599.2119,198.4521)"
                 id="g398"><path
                   d="m 0,0 c -0.106,-0.403 -0.211,-0.814 -0.311,-1.232 l -0.001,-0.001 c -0.106,-0.234 -11.499,-25.361 -17.152,-49.525 l -0.146,0.323 c -0.518,18.369 0.146,31.382 0.146,31.382 z"
                   style="fill:#6e85b7;fill-opacity:1;fill-rule:nonzero;stroke:none"
                   id="path396" /></g></g></g></g><g
           id="g404"
           transform="translate(573.6904,271.189)"><path
             d="m 0,0 c 0,0 -5.896,-5.163 -3.683,-18.325 2.213,-13.162 6.524,-26.323 7.572,-29.235 1.048,-2.912 0.609,-8.104 -0.338,-11.073 0,0 11.608,-3.719 26.429,0 0,0 -0.735,19.152 -3.674,31.279 -2.94,12.126 -8.196,25.432 -14.999,30.6 z"
             style="fill:#ffffff;fill-opacity:1;fill-rule:nonzero;stroke:none"
             id="path406" /></g><g
           id="g408"
           transform="translate(565.8311,249.5498)"><path
             d="m 0,0 -7.9,-12.509 -30.944,4.345 c 0,0 -6.123,6.518 -13.036,1.909 0,0 -10.862,-0.658 -10.797,-0.855 0.066,-0.198 -0.394,-9.086 -0.394,-9.086 h 5.53 c 0,0 1.909,-5.176 6.386,-5.353 4.476,-0.178 10.467,0.152 11.785,1.601 l 2.37,1.052 c 0,0 30.087,-6.517 32.391,-6.253 L 9.94,-6.716 Z"
             style="fill:#f79e51;fill-opacity:1;fill-rule:nonzero;stroke:none"
             id="path410" /></g><g
           id="g412"
           transform="translate(564.5879,248.793)"><path
             d="m 0,0 c 0,0 2.271,-5.055 11.283,-7.033 0,0 9.377,11.356 11.502,14.946 2.124,3.589 2.345,8.498 -0.806,10.696 -3.15,2.198 -8.132,2.198 -12.162,-3.297 C 5.788,9.817 0,0 0,0"
             style="fill:#d14738;fill-opacity:1;fill-rule:nonzero;stroke:none"
             id="path414" /></g><g
           id="g416"
           transform="translate(513.9512,243.2949)"><path
             d="m 0,0 6.987,-2.85 c 0,0 -12.699,-3.122 -13.05,-7.091"
             style="fill:none;stroke:#a35321;stroke-width:0.527;stroke-linecap:round;stroke-linejoin:round;stroke-miterlimit:10;stroke-dasharray:none;stroke-opacity:1"
             id="path418" /></g><g
           id="g420"
           transform="translate(513.6328,228.1387)"><path
             d="M 0,0 C 0,0 -2.994,4.757 -2.409,5.459 -1.824,6.162 -0.068,6.654 2.155,0 2.155,0 0.049,6.22 1.453,6.688 2.858,7.156 4.204,3.903 4.965,0 4.965,0 3.502,6.98 4.613,7.156 5.726,7.332 6.763,5.366 7.59,0 7.59,0 5.433,7.391 6.604,7.508 7.773,7.625 9.914,5.059 10.219,0.372"
             style="fill:none;stroke:#a35321;stroke-width:0.527;stroke-linecap:round;stroke-linejoin:round;stroke-miterlimit:10;stroke-dasharray:none;stroke-opacity:1"
             id="path422" /></g><g
           id="g424"
           transform="translate(569.9209,317.2539)"><path
             d="m 0,0 c 0,0 -9.945,0.418 -12.144,-7.852 -2.199,-8.271 -0.837,-9.356 -3.35,-11.378 -2.513,-2.023 -1.779,-5.14 0,-8.92 1.779,-3.781 8.375,-12.366 16.436,-9.225 l 2.828,-8.69 c 0,0 7.328,-0.628 11.306,3.246 l -3.249,11.548 c 0,0 6.913,8.029 7.646,13.054 C 20.206,-13.191 17.17,1.256 0,0"
             style="fill:#f79e51;fill-opacity:1;fill-rule:nonzero;stroke:none"
             id="path426" /></g><g
           id="g428"
           transform="translate(575.0205,293.8564)"><path
             d="m 0,0 c 0,-2.891 -2.343,-5.234 -5.234,-5.234 -2.89,0 -5.234,2.343 -5.234,5.234 0,2.891 2.344,5.234 5.234,5.234 C -2.343,5.234 0,2.891 0,0"
             style="fill:#fa8950;fill-opacity:1;fill-rule:nonzero;stroke:none"
             id="path430" /></g><g
           id="g432"
           transform="translate(579.833,288.6226)"><path
             d="m 0,0 1.915,-6.852 1.134,0.181 c 0,0 2.957,5.826 4.745,9.173 1.788,3.347 4.401,6.923 3.989,12.791 -0.413,5.869 -4.263,11.738 -8.115,12.059 0,0 -4.769,6.006 -10.361,6.739 -5.594,0.734 -7.474,-0.091 -7.612,-0.917 -0.137,-0.825 4.258,-2.384 4.258,-2.384 0,0 -8.338,1.33 -13.748,-0.825 -5.41,-2.155 -6.498,-4.855 -1.422,-5.135 0,0 -8.299,-1.88 -7.931,-4.723 0.367,-2.842 16.205,0.826 17.868,2.018 0,0 -7.002,-2.522 -6.727,-4.631 0.275,-2.109 12.333,2.109 14.397,3.806 0,0 -1.523,-8.569 4.123,-12.333 0,0 0.815,3.889 5.709,3.011 C 7.115,11.1 5.307,1.761 0,0"
             style="fill:#a35321;fill-opacity:1;fill-rule:nonzero;stroke:none"
             id="path434" /></g><g
           id="g436"><g
             id="g438" /><g
             id="g450"><g
               clip-path="url(#clipPath442)"
               opacity="0.479996"
               id="g448"><g
                 transform="translate(570.8633,279.8789)"
                 id="g446"><path
                   d="m 0,0 c 0,0 4.438,1.583 5.752,2.581 0,0 -0.562,-3.886 -4.427,-6.656 z"
                   style="fill:#f79e51;fill-opacity:1;fill-rule:nonzero;stroke:none"
                   id="path444" /></g></g></g></g><g
           id="g452"
           transform="translate(562.3457,298.9019)"><path
             d="m 0,0 c -0.166,-1.126 -0.874,-1.955 -1.581,-1.85 -0.707,0.104 -1.146,1.101 -0.98,2.227 0.166,1.126 0.874,1.955 1.582,1.851 C -0.272,2.124 0.166,1.126 0,0"
             style="fill:#43292b;fill-opacity:1;fill-rule:nonzero;stroke:none"
             id="path454" /></g><g
           id="g456"
           transform="translate(556.5254,285.7397)"><path
             d="M 0,0 C 0,0 3.638,1.461 6.256,3.364"
             style="fill:none;stroke:#a35321;stroke-width:0.527;stroke-linecap:round;stroke-linejoin:round;stroke-miterlimit:10;stroke-dasharray:none;stroke-opacity:1"
             id="path458" /></g><g
           id="g460"
           transform="translate(574.0576,81.3975)"><path
             d="m 0,0 -0.696,-13.502 h -33.049 c 0,0 0,3.161 2.802,5.101 2.801,1.94 17.134,9.097 17.134,9.097 z"
             style="fill:#ffffff;fill-opacity:1;fill-rule:nonzero;stroke:none"
             id="path462" /></g><g
           id="g464"
           transform="translate(560.249,82.0938)"><path
             d="m 0,0 13.809,-0.696 c 0,0 2.9,25.99 3.828,36.665 0.928,10.675 0.812,28.776 7.426,48.385 6.614,19.609 7.658,22.974 12.299,29.588 4.642,6.614 4.93,9.651 5.308,16.337 H 17.632 C 17.632,130.279 -2.916,61.314 0,0"
             style="fill:#6e85b7;fill-opacity:1;fill-rule:nonzero;stroke:none"
             id="path466" /></g><g
           id="g468"
           transform="translate(413.7471,71.0244)"><path
             d="m 0,0 c -0.118,-0.704 -14.571,-0.117 -16.568,0.705 -1.997,0.823 -4.114,4.583 -4.114,4.583 l -2.76,-4.583 h -1.586 c 0.132,3.673 0.604,7.576 1.147,11.025 0.913,5.822 2.025,10.361 2.025,10.361 l 10.927,-0.704 -0.939,-7.756 c 0,0 3.816,-4.116 7.122,-7.83 C -2.195,2.934 0.051,0.308 0,0"
             style="fill:#f79e51;fill-opacity:1;fill-rule:nonzero;stroke:none"
             id="path470" /></g><g
           id="g472"
           transform="translate(413.7471,71.0244)"><path
             d="m 0,0 c -0.118,-0.704 -14.571,-0.117 -16.568,0.705 -1.997,0.823 -4.114,4.583 -4.114,4.583 l -2.76,-4.583 h -1.586 c 0.132,3.673 0.604,7.576 1.147,11.025 L -11.839,2.849 C -9.31,4.825 -6.57,5.545 -4.746,5.801 -2.195,2.934 0.051,0.308 0,0"
             style="fill:#293753;fill-opacity:1;fill-rule:nonzero;stroke:none"
             id="path474" /></g><g
           id="g476"
           transform="translate(456.0703,71.0244)"><path
             d="m 0,0 c -0.117,-0.704 -14.57,-0.117 -16.567,0.705 -1.997,0.823 -4.114,4.583 -4.114,4.583 l -2.76,-4.583 h -1.586 c 0.131,3.673 0.603,7.576 1.147,11.025 0.913,5.822 2.025,10.361 2.025,10.361 l 10.927,-0.704 -0.939,-7.756 c 0,0 3.816,-4.116 7.121,-7.83 C -2.194,2.934 0.052,0.308 0,0"
             style="fill:#f79e51;fill-opacity:1;fill-rule:nonzero;stroke:none"
             id="path478" /></g><g
           id="g480"
           transform="translate(456.0703,71.0244)"><path
             d="m 0,0 c -0.117,-0.704 -14.57,-0.117 -16.567,0.705 -1.997,0.823 -4.114,4.583 -4.114,4.583 l -2.76,-4.583 h -1.586 c 0.131,3.673 0.603,7.576 1.147,11.025 l 12.041,-8.881 c 2.53,1.976 5.27,2.696 7.093,2.952 C -2.194,2.934 0.052,0.308 0,0"
             style="fill:#293753;fill-opacity:1;fill-rule:nonzero;stroke:none"
             id="path482" /></g><g
           id="g484"
           transform="translate(454.6641,266.9492)"><path
             d="M 0,0 20.33,-23.796 H 49.771 L 48.62,-34.34 17.915,-35.296 0.665,-21.726 -1.62,-37.516 c 0,0 5.348,-32.042 5.734,-38.702 0,0 -23.756,-3.78 -33.645,0 z"
             style="fill:#293753;fill-opacity:1;fill-rule:nonzero;stroke:none"
             id="path486" /></g><g
           id="g488"><g
             id="g490" /><g
             id="g502"><g
               clip-path="url(#clipPath494)"
               opacity="0.300003"
               id="g500"><g
                 transform="translate(455.3291,245.2236)"
                 id="g498"><path
                   d="m 0,0 c 0,0 1.757,10.678 -0.665,21.726 0,0 3.329,-14.791 2.204,-22.937 z"
                   style="fill:#293753;fill-opacity:1;fill-rule:nonzero;stroke:none"
                   id="path496" /></g></g></g></g><g
           id="g504"
           transform="translate(446.7061,229.6348)"><path
             d="m 0,0 c 0,0 2.325,-17.996 4.845,-32.109 2.52,-14.114 7.358,-89.217 2.314,-108.382 0,0 -21.99,-3.632 -28.244,1.613 0,0 8.36,88.163 6.601,105.715 l -20.723,-104.101 c 0,0 -10.289,-6.456 -29.253,2.018 0,0 25.016,91.188 28.042,102.688 3.026,11.499 11.845,35.533 11.845,35.533 z"
             style="fill:#ffffff;fill-opacity:1;fill-rule:nonzero;stroke:none"
             id="path506" /></g><g
           id="g508"
           transform="translate(438.4639,278.2407)"><path
             d="m 0,0 c 0,0 -11.499,-2.08 -15.341,-4.558 -3.842,-2.479 -4.482,-27.106 -0.99,-41.073 0,0 9.053,-7.372 24.573,-2.975 0,0 1.57,8.847 2.624,11.451 1.055,2.605 6.017,3.907 6.45,10.358 0.435,6.45 -1.116,15.505 -1.116,15.505 l -5.054,5.539 z"
             style="fill:#fe887c;fill-opacity:1;fill-rule:nonzero;stroke:none"
             id="path510" /></g><g
           id="g512"
           transform="translate(434.4189,277.4062)"><path
             d="m 0,0 c 0,0 3.344,-10.301 2.824,-18.127 -0.518,-7.827 -10.976,-53.485 -20.834,-69.986 0,0 -10.568,1.241 -18.02,4.967 l 21.455,36.729 c 0,0 -2.484,35.669 2.061,42.203 0,0 6.179,3.365 12.514,4.214"
             style="fill:#293753;fill-opacity:1;fill-rule:nonzero;stroke:none"
             id="path514" /></g><g
           id="g516"><g
             id="g518" /><g
             id="g530"><g
               clip-path="url(#clipPath522)"
               opacity="0.300003"
               id="g528"><g
                 transform="translate(428.374,261.7227)"
                 id="g526"><path
                   d="m 0,0 -9.207,-11.141 0.026,3.749 z"
                   style="fill:#293753;fill-opacity:1;fill-rule:nonzero;stroke:none"
                   id="path524" /></g></g></g></g><g
           id="g532"><g
             id="g534" /><g
             id="g546"><g
               clip-path="url(#clipPath538)"
               opacity="0.539993"
               id="g544"><g
                 transform="translate(434.4238,274.1709)"
                 id="g542"><path
                   d="m 0,0 -1.519,-6.418 2.43,-2.163 -3.113,-7.062 1.974,-12.453"
                   style="fill:none;stroke:#293753;stroke-width:0.396;stroke-linecap:round;stroke-linejoin:miter;stroke-miterlimit:10;stroke-dasharray:none;stroke-opacity:1"
                   id="path540" /></g></g></g></g><g
           id="g548"
           transform="translate(422.3496,218.0254)"><path
             d="M 0,0 C -1.898,1.537 -2.189,4.321 -0.653,6.219 0.884,8.118 3.667,8.41 5.565,6.873 7.463,5.337 7.757,2.553 6.22,0.654 4.683,-1.243 1.898,-1.536 0,0 m 7.937,27.642 c -9.466,7.664 -23.353,6.203 -31.018,-3.263 -7.665,-9.466 -6.204,-23.353 3.262,-31.018 9.465,-7.665 23.353,-6.205 31.018,3.261 7.665,9.466 6.204,23.355 -3.262,31.02"
             style="fill:#fcbc3b;fill-opacity:1;fill-rule:nonzero;stroke:none"
             id="path550" /></g><g
           id="g552"
           transform="translate(361.5146,261.895)"><path
             d="m 0,0 33.973,-27.508 11.343,14.009 -32.543,26.352 c -0.901,0.73 -2.09,1 -3.218,0.73 L 2.712,11.953 C 1.002,11.546 -0.192,10.002 -0.159,8.246 Z"
             style="fill:#fcbc3b;fill-opacity:1;fill-rule:nonzero;stroke:none"
             id="path554" /></g><g
           id="g556"
           transform="translate(361.5146,261.895)"><path
             d="m 0,0 0.443,-3.752 3.763,0.347 0.443,-3.752 3.762,0.346 0.443,-3.751 3.762,0.347 0.444,-3.752 3.761,0.346 0.444,-3.752 3.762,0.347 0.444,-3.752 3.762,0.347 0.444,-3.753 3.762,0.347 0.445,-3.753 3.762,0.346 1.366,1.686 L 1.365,1.687 Z"
             style="fill:#fcbc3b;fill-opacity:1;fill-rule:nonzero;stroke:none"
             id="path558" /></g><g
           id="g560"
           transform="translate(396.373,242.0146)"><path
             d="M 0,0 -29.452,23.847"
             style="fill:none;stroke:#f89a16;stroke-width:1.055;stroke-linecap:round;stroke-linejoin:miter;stroke-miterlimit:10;stroke-dasharray:none;stroke-opacity:1"
             id="path562" /></g><g
           id="g564"
           transform="translate(399.0889,245.3682)"><path
             d="M 0,0 -29.452,23.847"
             style="fill:none;stroke:#f89a16;stroke-width:1.055;stroke-linecap:round;stroke-linejoin:miter;stroke-miterlimit:10;stroke-dasharray:none;stroke-opacity:1"
             id="path566" /></g><g
           id="g568"
           transform="translate(411.3145,225.2236)"><path
             d="m 0,0 0.779,-2.595 c 0,0 12.375,-2.699 13.039,-4.672 0.663,-1.972 -7.953,-0.415 -7.745,-0.415 0.207,0 6.332,-9.702 6.332,-9.702 0,0 -1.12,-1.593 -2.646,-1.368 0,0 -2.17,-1.668 -4.049,-0.815 0,0 -2.336,-1.264 -4.152,-0.243 0,0 -3.115,-0.669 -4.724,1.058 -1.608,1.728 -3.529,8.994 -3.426,10.914 0.105,1.921 -1.349,5.555 -1.349,5.555 z"
             style="fill:#f79e51;fill-opacity:1;fill-rule:nonzero;stroke:none"
             id="path570" /></g><g
           id="g572"
           transform="translate(421.0732,206.4717)"><path
             d="M 0,0 -3.975,5.579"
             style="fill:none;stroke:#a35321;stroke-width:0.527;stroke-linecap:round;stroke-linejoin:round;stroke-miterlimit:10;stroke-dasharray:none;stroke-opacity:1"
             id="path574" /></g><g
           id="g576"
           transform="translate(417.0244,205.6562)"><path
             d="M 0,0 -3.434,5.318"
             style="fill:none;stroke:#a35321;stroke-width:0.527;stroke-linecap:round;stroke-linejoin:round;stroke-miterlimit:10;stroke-dasharray:none;stroke-opacity:1"
             id="path578" /></g><g
           id="g580"
           transform="translate(412.8721,205.4141)"><path
             d="M 0,0 -2.976,5.421"
             style="fill:none;stroke:#a35321;stroke-width:0.527;stroke-linecap:round;stroke-linejoin:round;stroke-miterlimit:10;stroke-dasharray:none;stroke-opacity:1"
             id="path582" /></g><g
           id="g584"
           transform="translate(402.4463,221.4619)"><path
             d="M 0,0 9.732,2.999 6.068,22.12 c 0,0 18.378,16.375 21.04,19.351 2.663,2.977 1.288,7.787 -0.544,9.389 C 24.732,52.463 21.641,54.524 16.26,49.487 10.878,44.448 -5.767,23.231 -5.92,21.892 Z"
             style="fill:#293753;fill-opacity:1;fill-rule:nonzero;stroke:none"
             id="path586" /></g><g
           id="g588"
           transform="translate(468.0654,316.3516)"><path
             d="m 0,0 c 0,0 9.155,-2.237 9.348,-10.667 0.18,-7.88 -1.579,-8.628 0.049,-10.785 1.628,-2.158 2.468,-4.185 0.43,-7.186 -2.037,-3.001 -9.947,-11.02 -21.452,-6.831 l -6.831,-8.395 -3.596,-1.797 -7.55,7.55 7.79,9.51 c 0,0 -5.632,6.909 -2.397,16.017 C -20.973,-3.476 -14.621,2.637 0,0"
             style="fill:#f79e51;fill-opacity:1;fill-rule:nonzero;stroke:none"
             id="path590" /></g><g
           id="g592"
           transform="translate(466.5332,294.2822)"><path
             d="m 0,0 c 0,-2.86 -2.318,-5.179 -5.179,-5.179 -2.86,0 -5.179,2.319 -5.179,5.179 0,2.86 2.319,5.179 5.179,5.179 C -2.318,5.179 0,2.86 0,0"
             style="fill:#fa8950;fill-opacity:1;fill-rule:nonzero;stroke:none"
             id="path594" /></g><g
           id="g596"><g
             id="g598" /><g
             id="g610"><g
               clip-path="url(#clipPath602)"
               opacity="0.479996"
               id="g608"><g
                 transform="translate(456.4404,280.8828)"
                 id="g606"><path
                   d="m 0,0 c 0,0 -2.948,1.113 -4.889,2.957 l 1.678,-6.903 z"
                   style="fill:#f79e51;fill-opacity:1;fill-rule:nonzero;stroke:none"
                   id="path604" /></g></g></g></g><g
           id="g612"
           transform="translate(453.2607,298.0234)"><path
             d="m 0,0 c 0,0 12.063,4.8 12.178,12.766 0,0 2.303,-2.618 1.094,-7.283 0,0 8.465,-2.504 14.041,-1.252 0,0 0.796,14.567 -12.973,15.249 0,0 -11.609,8.65 -23.785,-1.593 -12.177,-10.242 -8.422,-30.935 -8.422,-30.935 0,0 5.1,-4.233 15.364,-4.705 0,0 -1.301,6.337 -0.127,11.559 0,0 -7.099,2.099 -5.925,8.763 C -7.382,9.234 1.634,7.837 0,0"
             style="fill:#a35321;fill-opacity:1;fill-rule:nonzero;stroke:none"
             id="path614" /></g><g
           id="g616"
           transform="translate(438.7842,278.6323)"><path
             d="m 0,0 -1.541,-0.626 5.178,-9.887 3.592,2.571 1.657,-2.938 2.873,3.713 -0.763,1.233 -3.705,-1.763 z"
             style="fill:#ffffff;fill-opacity:1;fill-rule:nonzero;stroke:none"
             id="path618" /></g><g
           id="g620"
           transform="translate(471.9795,296.0322)"><path
             d="m 0,0 c -0.273,-1.105 -1.058,-1.861 -1.751,-1.689 -0.694,0.171 -1.034,1.206 -0.761,2.311 0.274,1.105 1.058,1.861 1.751,1.69 C -0.067,2.14 0.273,1.105 0,0"
             style="fill:#43292b;fill-opacity:1;fill-rule:nonzero;stroke:none"
             id="path622" /></g><g
           id="g624"
           transform="translate(473.7793,283.522)"><path
             d="M 0,0 C 0,0 -3.949,1.693 -5.767,3.887"
             style="fill:none;stroke:#a35321;stroke-width:0.527;stroke-linecap:round;stroke-linejoin:round;stroke-miterlimit:10;stroke-dasharray:none;stroke-opacity:1"
             id="path626" /></g></g></g><text
       transform="matrix(1,0,0,-1,72.8193,304.8301)"
       style="font-variant:normal;font-weight:800;font-stretch:normal;font-size:39.6087px;font-family:'Poppins ExtraBold';-inkscape-font-specification:Poppins-ExtraBold;writing-mode:lr-tb;fill:#386d8f;fill-opacity:1;fill-rule:nonzero;stroke:none"
       id="text632"><tspan
         x="0 25.111916 44.599396 74.385139 104.2897 125.91605"
         y="0"
         sodipodi:role="line"
         id="tspan628">PLACES</tspan><tspan
         x="0 23.686003 54.937267 62.264877 81.752357 93.87262 123.3811"
         y="39.014568"
         sodipodi:role="line"
         id="tspan630">TO LIVE</tspan></text><text
       transform="matrix(1,0,0,-1,75.623,344.2285)"
       style="font-variant:normal;font-weight:200;font-stretch:normal;font-size:25.5575px;font-family:'Poppins ExtraLight';-inkscape-font-specification:Poppins-ExtraLight;writing-mode:lr-tb;fill:#4f86ac;fill-opacity:1;fill-rule:nonzero;stroke:none"
       id="text636"><tspan
         x="0 14.72112 27.218737 43.14106 59.49786 71.969917 77.260323 89.579041 105.93584"
         y="0"
         sodipodi:role="line"
         id="tspan634">BEAUTIFUL</tspan></text></g></svg>
