<?xml version="1.0" standalone="yes"?>
<svg xmlns="http://www.w3.org/2000/svg" width="512" height="512">
<path style="fill:#ffffff; stroke:none;" d="M0 0L0 512L438 512L438 511C426.721 507.257 422.421 494.54 417 485C403.436 461.131 390.564 436.869 377 413C322.401 316.922 272.135 218.187 216 123C205.472 125.966 191.952 132.133 181 131L185.578 111.001L187.384 101.514L203 100C199.762 95.5103 193.046 97 188 97C187.556 78.5608 162.254 80.3665 165 98C158.94 99.125 147.74 101.085 142.104 97.9722C137.986 95.6977 135.814 89.8995 133.579 86C128.036 76.3314 113.325 59.7302 118.228 48C121.725 39.6355 132.297 32.3986 139 26.5756C147.358 19.3149 154.854 9.85788 165 4.98456C176.847 -0.705811 193.173 1 206 1L186 0L145 0L0 0z"/>
<path style="fill:#010101; stroke:none;" d="M165 98C164.159 80.5166 187.047 79.3817 188 97C193.454 97 198.81 96.0442 203 100L187.359 101.028L185.284 111L181 131C190.681 133.071 206.803 126.47 216 123C229.323 154.832 250.239 184.651 266.691 215C303.003 281.982 340.096 348.664 377.576 415C390.702 438.233 403.298 461.767 416.424 485C421.391 493.791 425.811 506.968 436.001 510.856C449.78 516.112 464.931 506.005 463.903 491C462.905 476.443 448.334 455.705 440 444L462 434C466.134 441.081 473.486 438.61 480 436.189C491.022 432.093 498.315 424.754 495.656 412.005C492.765 398.146 472.396 413.565 465.015 414.897C457.655 416.225 457.852 404.096 450.957 404.539C441.347 405.156 433.709 415.363 424 416C431.52 408.399 445.185 404.027 455 400C456.309 403.575 459.063 411.13 463.21 412.184C469.596 413.806 490.902 403.133 492.927 396.985C496.867 385.026 482.359 377.309 473 382L467 373C477.922 369.844 478.582 357.517 466.999 353.869C462.804 352.547 457.967 355.707 454.184 353.306C451.329 351.494 449.592 347.856 448 345C459.334 342.978 462.475 331.599 451.96 325.009C444.308 320.214 423.236 326.058 419.029 334.044C416.769 338.331 419.372 343.005 421 347L392 358C385.365 337.034 369.585 316.224 358.86 297C335.839 255.733 313.162 214.269 290.14 173C281.602 157.696 273.13 142.359 264.694 127C261.643 121.444 255.647 114.314 254.671 108C253.471 100.244 269.834 90.1752 273.892 84C281.636 72.2159 277.705 61.6625 276 49C262.496 55.2971 250.515 72.4846 240 83C242.279 73.0136 256.881 63.1224 264 56C266.578 53.4213 271.546 49.9148 271.967 46C272.751 38.7034 258.713 24.783 254.579 19C250.59 13.4206 246.894 6.91187 240.996 3.13348C230.731 -3.44293 213.505 0.122589 202 0.910492C190.853 1.67383 178.829 0.125549 168 3.4429C156.655 6.9183 148.499 17.1404 140 24.8302C133.463 30.7451 124.823 36.6907 119.854 44.0146C110.992 57.0779 126.082 73.9432 132.421 85C134.721 89.0109 137.062 95.5492 141.21 97.9722C146.615 101.13 159.155 99.3917 165 98z"/>
<path style="fill:#ffffff; stroke:none;" d="M235 0L235 1C248.439 5.29126 256.846 23.0798 264.576 34C267.104 37.5722 273.091 43.3907 270.454 48C265.57 56.5403 254.945 64.0516 248 71C244.453 74.5482 239.922 77.744 240 83L276 49C276.993 61.1569 281.503 70.4326 274.521 82C270.404 88.8209 252.517 99.733 254.114 108C255.772 116.579 263.698 126.425 268 134C277.217 150.229 286.045 166.698 295.14 183C316.304 220.938 337.394 258.924 358.306 297C369.424 317.245 382.232 337.078 392 358L421 347C420.036 343.621 417.517 339.581 418.647 336.004C421.286 327.645 442.511 320.671 449.996 324.457C461.751 330.403 459.612 341.647 448 345C449.217 348.208 450.939 352.253 454.184 353.933C457.845 355.827 462.104 352.911 466 353.944C478.335 357.218 477.185 368.727 467 373L473 382C481.652 378.799 497.12 385.164 492.473 396.985C490.221 402.713 469.304 413.629 463.21 411.583C459.363 410.291 456.772 403.329 455 400C446.344 402.474 429.018 408.34 424 416C433.833 416.074 441.396 405.291 450.957 404.955C457.707 404.718 457.351 416.79 465.015 415.307C472.513 413.857 490.516 399.512 495.106 411.019C501.87 427.975 473.552 447.471 462 434L440 444C448.502 460.159 481.311 500.356 450 511L450 512L512 512L512 0L235 0M199 22.4252C182.13 24.7215 162.498 29.9789 151.39 44.0038C132.032 68.4459 170.872 73.9638 187 71.8411C202.575 69.7911 222.834 61.8521 231.437 47.9992C244.265 27.3407 213.352 20.4716 199 22.4252z"/>
<path style="fill:#010101; stroke:none;" d="M114 59C115.442 75.5117 126.699 102.974 138.093 114.985C141.62 118.703 152.725 126.574 158.316 122.933C163.912 119.288 162.906 106.899 165 101C158.44 101.518 146.303 104.675 140.379 100.972C136.614 98.6192 134.678 92.7137 132.576 89C127.14 79.4009 122.14 66.515 114 59M173 102L173 103C166.358 105.022 162.951 112.882 170 117L170 118C161.959 120.766 162.017 127.108 167 133C159.595 135.103 157.687 143.312 165 147L165 148C157.121 149.227 154.446 158.036 162 162L162 163C154.132 164.605 151.758 173.857 160 177L160 178C151.745 178.923 148.213 191.179 158.015 192.501C166.461 193.64 168.741 182.684 162 179L162 178C168.44 175.784 171.969 168.071 165 164L165 163C173.041 160.234 172.983 153.892 168 148C175.028 145.552 177.28 137.82 170 134L170 133C177.512 131.467 180.474 123.024 173 119L173 118C180.673 116.414 183.045 107.068 175 104C182.422 100.952 187.042 87.2939 175.015 88.4529C167.152 89.2107 167.055 98.7997 173 102M179 144C171.299 156.731 175.846 175.545 169.91 188.985C165.555 198.849 151.84 198.454 148.434 187.996C146.965 183.485 149.556 180.212 150.466 176C152.044 168.698 153.585 160.491 153 153L127 177C126.992 174.084 127.526 170.01 125.258 167.742C119.405 161.891 93.5262 167.309 88.2137 172.343C83.5249 176.787 82.6202 184.025 81.1265 190C77.9827 202.575 76.2392 217.083 71.1458 229C65.6643 241.825 48.7113 252.289 39 262C34.1095 266.89 16.6224 279.365 17.466 286.852C18.1071 292.54 38.5991 290 43 290C39.3377 318.828 32.2332 347.371 27.25 376C25.9115 383.69 19.4961 400.548 24.179 407.581C26.9964 411.812 32.8208 410.567 37 410.17C48.66 409.06 60.3419 408.284 72 407.17C117.989 402.776 165.818 396 212 396C214.039 370.374 222.784 344.176 227.997 319C230.673 306.075 231.394 287.838 237.513 276.148C240.855 269.764 260.667 273.003 267 273C270.421 272.998 277.026 273.841 277.458 268.941C277.813 264.908 273.687 260.878 271.399 258L253 235C229.303 205.38 201.085 176.144 181 144L179 144z"/>
<path style="fill:#ffffff; stroke:none;" d="M126 177L127 178L126 177M149 201.533C129.493 205.803 132.438 238.671 153 234.456C172.902 230.376 169.72 196.998 149 201.533z"/>
<path style="fill:#010101; stroke:none;" d="M254 279C260.478 287.445 274.034 298.929 285 298.999C287.977 299.018 294.197 300.016 295.839 296.682C297.694 292.914 292.229 288.289 289.985 286.001C280.281 276.1 266.959 279 254 279M245 280C240.813 311.093 231.577 342.388 224.65 373C223.206 379.386 222.154 400.512 215.772 403.397C204.685 408.407 186.096 406.014 174 407.17C140.069 410.412 105.849 411.718 72 415.715C61.0573 417.006 49.9676 417.118 39 418.17C35.659 418.49 29.0719 418.443 27.6474 422.228C25.1041 428.987 38.0416 440.98 43 443.995C49.9373 448.213 57.4456 446.607 65 446.09C79.3366 445.108 93.6925 444.531 108 443.17C141.881 439.945 176.197 440.274 210 436.285C220.205 435.081 236.051 438.003 244.815 431.853C252.646 426.356 252.955 411.625 254.789 403C259.81 379.387 264.466 355.671 269.2 332C270.717 324.412 276.387 310.568 274.226 303.09C271.975 295.3 252.219 283.052 245 280M20 296C25.1027 306.912 34.5672 308.494 37 296L20 296z"/>
</svg>
